<svg width="14" height="17" viewBox="0 0 14 17" fill="none" xmlns="http://www.w3.org/2000/svg">
<rect x="1" y="2" width="12" height="11" fill="#F6B900"/>
<circle cx="3.0625" cy="11.6094" r="2" fill="#F6B900"/>
<circle cx="11.0625" cy="11.6094" r="2" fill="#F6B900"/>
<path d="M7.06499 0.238281C3.34285 0.238281 0.328125 0.659347 0.328125 3.60669V12.0277C0.328125 12.773 0.656546 13.4341 1.17022 13.8972V15.3962C1.17022 15.8593 1.54917 16.2383 2.01231 16.2383H2.85444C3.32181 16.2383 3.69654 15.8593 3.69654 15.3962V14.5541H10.4334V15.3962C10.4334 15.8593 10.8081 16.2383 11.2755 16.2383H12.1176C12.5807 16.2383 12.9597 15.8593 12.9597 15.3962V13.8973C13.4733 13.4341 13.8018 12.773 13.8018 12.0278V3.60669C13.8018 0.659347 10.7871 0.238281 7.06499 0.238281ZM3.27551 12.8699C2.57655 12.8699 2.01235 12.3057 2.01235 11.6067C2.01235 10.9078 2.57655 10.3436 3.27551 10.3436C3.97447 10.3436 4.53867 10.9078 4.53867 11.6067C4.53867 12.3057 3.97443 12.8699 3.27551 12.8699ZM10.8545 12.8699C10.1555 12.8699 9.5913 12.3057 9.5913 11.6067C9.5913 10.9078 10.1555 10.3436 10.8545 10.3436C11.5534 10.3436 12.1176 10.9078 12.1176 11.6067C12.1176 12.3057 11.5534 12.8699 10.8545 12.8699ZM12.1176 7.81723H2.01235V3.60669H12.1176V7.81723Z" fill="#B34B1E"/>
</svg>
