<svg width="16" height="16" viewBox="0 0 16 16" fill="none" xmlns="http://www.w3.org/2000/svg">
<g id="Group">
<path id="Vector" d="M2.41641 16.0001H13.5809C14.7512 16.0001 15.7023 15.049 15.7023 13.8786V3.30667C15.7023 2.1363 14.7512 1.18517 13.5809 1.18517H12.7394V0.592585C12.7394 0.266653 12.4727 0 12.1468 0C11.8208 0 11.5542 0.266653 11.5542 0.592585V1.18517H4.44309V0.592585C4.44309 0.266653 4.17639 0 3.85046 0C3.52453 0 3.25788 0.266653 3.25788 0.592585V1.18517H2.41641C1.24604 1.18517 0.294922 2.1363 0.294922 3.30667V13.8786C0.294922 15.049 1.24604 16.0001 2.41641 16.0001ZM1.48013 3.30667C1.48013 2.79113 1.90087 2.37039 2.41641 2.37039H3.25788V2.96298C3.25788 3.28891 3.52453 3.55556 3.85046 3.55556C4.17639 3.55556 4.44304 3.28891 4.44304 2.96298V2.37039H11.5542V2.96298C11.5542 3.28891 11.8208 3.55556 12.1468 3.55556C12.4727 3.55556 12.7393 3.28891 12.7393 2.96298V2.37039H13.5808C14.0963 2.37039 14.5171 2.79113 14.5171 3.30667V5.03707H1.48013V3.30667ZM1.48013 6.22224H14.5172V13.8786C14.5172 14.3941 14.0964 14.8149 13.5809 14.8149H2.41641C1.90087 14.8149 1.48013 14.3941 1.48013 13.8786V6.22224Z" fill="#B7B7B7"/>
</g>
</svg>
