<svg width="692" height="56" viewBox="0 0 692 56" fill="none" xmlns="http://www.w3.org/2000/svg">
<ellipse cx="257.82" cy="30.6322" rx="1.78058" ry="1.7806" fill="url(#paint0_linear_7271_16310)"/>
<ellipse cx="4.87539" cy="3.14941" rx="4.87539" ry="3.14941" transform="matrix(0.941958 0.335729 -0.335724 0.941961 246.854 22.7344)" fill="url(#paint1_linear_7271_16310)"/>
<g clip-path="url(#clip0_7271_16310)">
<path d="M284.326 28C281.426 28 279.053 30.373 279.053 33.2734C279.053 36.1739 281.426 38.5469 284.326 38.5469C287.227 38.5469 289.6 36.1739 289.6 33.2734C289.6 30.373 287.227 28 284.326 28ZM284.326 36.7891C282.393 36.7891 280.811 35.207 280.811 33.2734C280.811 31.3399 282.393 29.7578 284.326 29.7578C286.26 29.7578 287.842 31.3399 287.842 33.2734C287.842 35.207 286.26 36.7891 284.326 36.7891Z" fill="#B34B1E"/>
<path d="M264.873 28C261.973 28 259.6 30.373 259.6 33.2734C259.6 36.1739 261.973 38.5469 264.873 38.5469C267.773 38.5469 270.146 36.1739 270.146 33.2734C270.146 30.373 267.773 28 264.873 28ZM264.873 36.7891C262.939 36.7891 261.357 35.207 261.357 33.2734C261.357 31.3399 262.939 29.7578 264.873 29.7578C266.807 29.7578 268.389 31.3399 268.389 33.2734C268.389 35.207 266.807 36.7891 264.873 36.7891Z" fill="#B34B1E"/>
<path d="M266.631 22.7266H275.537V28H266.631V22.7266ZM279.932 19.2109H278.174C277.688 19.2109 277.295 18.8178 277.295 18.332C277.295 17.8462 277.688 17.4531 278.174 17.4531H279.932C280.417 17.4531 280.81 17.8462 280.81 18.332C280.81 18.8178 280.417 19.2109 279.932 19.2109Z" fill="#F6B900"/>
<path d="M284.818 34.0078C284.66 34.0957 284.502 34.1485 284.326 34.1485C284.045 34.1485 283.763 34.0078 283.588 33.7619L279.474 27.6095C279.193 27.2052 279.316 26.6602 279.703 26.3791C280.107 26.1153 280.652 26.2208 280.933 26.6251L284.326 31.6701L285.064 32.7774C285.328 33.1817 285.222 33.7266 284.818 34.0078ZM274.658 31.5118V35.0274H264.873C263.906 35.0274 263.115 34.2364 263.115 33.2696C263.115 32.3028 263.906 31.5118 264.873 31.5118H274.658Z" fill="#F6B900"/>
<path d="M279.931 17.4531C279.439 17.4531 279.053 17.8398 279.053 18.332V20.9688H276.416C276.117 20.9688 275.853 21.1094 275.678 21.3554L272.367 26.2422H269.742L266.947 22.0586C266.49 21.373 265.734 20.9688 264.908 20.9688H260.479C259.986 20.9688 259.6 21.3554 259.6 21.8477C259.6 24.0977 261.305 25.9785 263.502 26.207L266.314 30.4258C266.771 31.1113 267.527 31.5156 268.353 31.5156H270.48L271.084 32.623L271.611 33.6777C272.033 34.5039 272.877 35.0312 273.826 35.0312H275.115C276.293 35.0312 277.295 34.2051 277.523 33.0449L277.664 32.4297C278.367 28.8437 281.549 26.2422 285.205 26.2422C285.697 26.2422 286.084 25.8555 286.084 25.3633V23.6055C286.084 20.2129 283.324 17.4531 279.931 17.4531Z" fill="#B34B1E"/>
</g>
<path d="M304.944 24.64V27.44H308.704V29.216H304.944V32.176H309.184V34H302.704V22.816H309.184V24.64H304.944ZM316.331 25.008C317.387 25.008 318.241 25.344 318.891 26.016C319.542 26.6773 319.867 27.6053 319.867 28.8V34H317.627V29.104C317.627 28.4 317.451 27.8613 317.099 27.488C316.747 27.104 316.267 26.912 315.659 26.912C315.041 26.912 314.55 27.104 314.187 27.488C313.835 27.8613 313.659 28.4 313.659 29.104V34H311.419V25.136H313.659V26.24C313.958 25.856 314.337 25.5573 314.795 25.344C315.265 25.12 315.777 25.008 316.331 25.008ZM323.333 24.08C322.928 24.08 322.592 23.9573 322.325 23.712C322.069 23.456 321.941 23.1413 321.941 22.768C321.941 22.3947 322.069 22.0853 322.325 21.84C322.592 21.584 322.928 21.456 323.333 21.456C323.728 21.456 324.053 21.584 324.309 21.84C324.565 22.0853 324.693 22.3947 324.693 22.768C324.693 23.1413 324.565 23.456 324.309 23.712C324.053 23.9573 323.728 24.08 323.333 24.08ZM324.437 35.456C324.437 36.4373 324.192 37.1413 323.701 37.568C323.221 38.0053 322.528 38.224 321.621 38.224H320.629V36.32H321.269C321.611 36.32 321.851 36.2507 321.989 36.112C322.128 35.984 322.197 35.7707 322.197 35.472V25.136H324.437V35.456ZM330.786 34.144C329.933 34.144 329.165 33.9573 328.482 33.584C327.8 33.2 327.261 32.6613 326.866 31.968C326.482 31.2747 326.29 30.4747 326.29 29.568C326.29 28.6613 326.488 27.8613 326.882 27.168C327.288 26.4747 327.837 25.9413 328.53 25.568C329.224 25.184 329.997 24.992 330.85 24.992C331.704 24.992 332.477 25.184 333.17 25.568C333.864 25.9413 334.408 26.4747 334.802 27.168C335.208 27.8613 335.41 28.6613 335.41 29.568C335.41 30.4747 335.202 31.2747 334.786 31.968C334.381 32.6613 333.826 33.2 333.122 33.584C332.429 33.9573 331.65 34.144 330.786 34.144ZM330.786 32.192C331.192 32.192 331.57 32.096 331.922 31.904C332.285 31.7013 332.573 31.4027 332.786 31.008C333 30.6133 333.106 30.1333 333.106 29.568C333.106 28.7253 332.882 28.08 332.434 27.632C331.997 27.1733 331.458 26.944 330.818 26.944C330.178 26.944 329.64 27.1733 329.202 27.632C328.776 28.08 328.562 28.7253 328.562 29.568C328.562 30.4107 328.77 31.0613 329.186 31.52C329.613 31.968 330.146 32.192 330.786 32.192ZM338.39 24.08C337.995 24.08 337.664 23.9573 337.398 23.712C337.142 23.456 337.014 23.1413 337.014 22.768C337.014 22.3947 337.142 22.0853 337.398 21.84C337.664 21.584 337.995 21.456 338.39 21.456C338.784 21.456 339.11 21.584 339.366 21.84C339.632 22.0853 339.766 22.3947 339.766 22.768C339.766 23.1413 339.632 23.456 339.366 23.712C339.11 23.9573 338.784 24.08 338.39 24.08ZM339.494 25.136V34H337.254V25.136H339.494ZM346.819 25.008C347.875 25.008 348.728 25.344 349.379 26.016C350.029 26.6773 350.355 27.6053 350.355 28.8V34H348.115V29.104C348.115 28.4 347.939 27.8613 347.587 27.488C347.235 27.104 346.755 26.912 346.147 26.912C345.528 26.912 345.037 27.104 344.675 27.488C344.323 27.8613 344.147 28.4 344.147 29.104V34H341.907V25.136H344.147V26.24C344.445 25.856 344.824 25.5573 345.283 25.344C345.752 25.12 346.264 25.008 346.819 25.008ZM358.937 22.832V34H356.697V22.832H358.937ZM366.262 25.008C367.318 25.008 368.172 25.344 368.822 26.016C369.473 26.6773 369.798 27.6053 369.798 28.8V34H367.558V29.104C367.558 28.4 367.382 27.8613 367.03 27.488C366.678 27.104 366.198 26.912 365.59 26.912C364.972 26.912 364.481 27.104 364.118 27.488C363.766 27.8613 363.59 28.4 363.59 29.104V34H361.35V25.136H363.59V26.24C363.889 25.856 364.268 25.5573 364.726 25.344C365.196 25.12 365.708 25.008 366.262 25.008ZM385.405 22.832V34H383.165V29.248H378.381V34H376.141V22.832H378.381V27.424H383.165V22.832H385.405ZM387.234 29.536C387.234 28.64 387.41 27.8453 387.762 27.152C388.125 26.4587 388.61 25.9253 389.218 25.552C389.837 25.1787 390.525 24.992 391.282 24.992C391.943 24.992 392.519 25.1253 393.01 25.392C393.511 25.6587 393.911 25.9947 394.21 26.4V25.136H396.466V34H394.21V32.704C393.922 33.12 393.522 33.4667 393.01 33.744C392.509 34.0107 391.927 34.144 391.266 34.144C390.519 34.144 389.837 33.952 389.218 33.568C388.61 33.184 388.125 32.6453 387.762 31.952C387.41 31.248 387.234 30.4427 387.234 29.536ZM394.21 29.568C394.21 29.024 394.103 28.56 393.89 28.176C393.677 27.7813 393.389 27.4827 393.026 27.28C392.663 27.0667 392.274 26.96 391.858 26.96C391.442 26.96 391.058 27.0613 390.706 27.264C390.354 27.4667 390.066 27.7653 389.842 28.16C389.629 28.544 389.522 29.0027 389.522 29.536C389.522 30.0693 389.629 30.5387 389.842 30.944C390.066 31.3387 390.354 31.6427 390.706 31.856C391.069 32.0693 391.453 32.176 391.858 32.176C392.274 32.176 392.663 32.0747 393.026 31.872C393.389 31.6587 393.677 31.36 393.89 30.976C394.103 30.5813 394.21 30.112 394.21 29.568ZM410.642 26.192C410.386 25.7227 410.034 25.3653 409.586 25.12C409.138 24.8747 408.615 24.752 408.018 24.752C407.357 24.752 406.77 24.9013 406.258 25.2C405.746 25.4987 405.346 25.9253 405.058 26.48C404.77 27.0347 404.626 27.6747 404.626 28.4C404.626 29.1467 404.77 29.7973 405.058 30.352C405.357 30.9067 405.767 31.3333 406.29 31.632C406.813 31.9307 407.421 32.08 408.114 32.08C408.967 32.08 409.666 31.856 410.21 31.408C410.754 30.9493 411.111 30.3147 411.282 29.504H407.442V27.792H413.49V29.744C413.341 30.5227 413.021 31.2427 412.53 31.904C412.039 32.5653 411.405 33.0987 410.626 33.504C409.858 33.8987 408.994 34.096 408.034 34.096C406.957 34.096 405.981 33.856 405.106 33.376C404.242 32.8853 403.559 32.208 403.058 31.344C402.567 30.48 402.322 29.4987 402.322 28.4C402.322 27.3013 402.567 26.32 403.058 25.456C403.559 24.5813 404.242 23.904 405.106 23.424C405.981 22.9333 406.951 22.688 408.018 22.688C409.277 22.688 410.37 22.9973 411.298 23.616C412.226 24.224 412.866 25.0827 413.218 26.192H410.642ZM416.483 24.08C416.089 24.08 415.758 23.9573 415.491 23.712C415.235 23.456 415.107 23.1413 415.107 22.768C415.107 22.3947 415.235 22.0853 415.491 21.84C415.758 21.584 416.089 21.456 416.483 21.456C416.878 21.456 417.203 21.584 417.459 21.84C417.726 22.0853 417.859 22.3947 417.859 22.768C417.859 23.1413 417.726 23.456 417.459 23.712C417.203 23.9573 416.878 24.08 416.483 24.08ZM417.587 25.136V34H415.347V25.136H417.587ZM419.424 29.536C419.424 28.64 419.6 27.8453 419.952 27.152C420.315 26.4587 420.8 25.9253 421.408 25.552C422.027 25.1787 422.715 24.992 423.472 24.992C424.134 24.992 424.71 25.1253 425.2 25.392C425.702 25.6587 426.102 25.9947 426.4 26.4V25.136H428.656V34H426.4V32.704C426.112 33.12 425.712 33.4667 425.2 33.744C424.699 34.0107 424.118 34.144 423.456 34.144C422.71 34.144 422.027 33.952 421.408 33.568C420.8 33.184 420.315 32.6453 419.952 31.952C419.6 31.248 419.424 30.4427 419.424 29.536ZM426.4 29.568C426.4 29.024 426.294 28.56 426.08 28.176C425.867 27.7813 425.579 27.4827 425.216 27.28C424.854 27.0667 424.464 26.96 424.048 26.96C423.632 26.96 423.248 27.0613 422.896 27.264C422.544 27.4667 422.256 27.7653 422.032 28.16C421.819 28.544 421.712 29.0027 421.712 29.536C421.712 30.0693 421.819 30.5387 422.032 30.944C422.256 31.3387 422.544 31.6427 422.896 31.856C423.259 32.0693 423.643 32.176 424.048 32.176C424.464 32.176 424.854 32.0747 425.216 31.872C425.579 31.6587 425.867 31.36 426.08 30.976C426.294 30.5813 426.4 30.112 426.4 29.568ZM435.956 25.008C437.012 25.008 437.866 25.344 438.516 26.016C439.167 26.6773 439.492 27.6053 439.492 28.8V34H437.252V29.104C437.252 28.4 437.076 27.8613 436.724 27.488C436.372 27.104 435.892 26.912 435.284 26.912C434.666 26.912 434.175 27.104 433.812 27.488C433.46 27.8613 433.284 28.4 433.284 29.104V34H431.044V25.136H433.284V26.24C433.583 25.856 433.962 25.5573 434.42 25.344C434.89 25.12 435.402 25.008 435.956 25.008ZM445.294 24.992C445.956 24.992 446.537 25.1253 447.038 25.392C447.54 25.648 447.934 25.984 448.222 26.4V25.136H450.478V34.064C450.478 34.8853 450.313 35.616 449.982 36.256C449.652 36.9067 449.156 37.4187 448.494 37.792C447.833 38.176 447.033 38.368 446.094 38.368C444.836 38.368 443.801 38.0747 442.99 37.488C442.19 36.9013 441.737 36.1013 441.63 35.088H443.854C443.972 35.4933 444.222 35.8133 444.606 36.048C445.001 36.2933 445.476 36.416 446.03 36.416C446.681 36.416 447.209 36.2187 447.614 35.824C448.02 35.44 448.222 34.8533 448.222 34.064V32.688C447.934 33.104 447.534 33.4507 447.022 33.728C446.521 34.0053 445.945 34.144 445.294 34.144C444.548 34.144 443.865 33.952 443.246 33.568C442.628 33.184 442.137 32.6453 441.774 31.952C441.422 31.248 441.246 30.4427 441.246 29.536C441.246 28.64 441.422 27.8453 441.774 27.152C442.137 26.4587 442.622 25.9253 443.23 25.552C443.849 25.1787 444.537 24.992 445.294 24.992ZM448.222 29.568C448.222 29.024 448.116 28.56 447.902 28.176C447.689 27.7813 447.401 27.4827 447.038 27.28C446.676 27.0667 446.286 26.96 445.87 26.96C445.454 26.96 445.07 27.0613 444.718 27.264C444.366 27.4667 444.078 27.7653 443.854 28.16C443.641 28.544 443.534 29.0027 443.534 29.536C443.534 30.0693 443.641 30.5387 443.854 30.944C444.078 31.3387 444.366 31.6427 444.718 31.856C445.081 32.0693 445.465 32.176 445.87 32.176C446.286 32.176 446.676 32.0747 447.038 31.872C447.401 31.6587 447.689 31.36 447.902 30.976C448.116 30.5813 448.222 30.112 448.222 29.568ZM453.858 34.112C453.453 34.112 453.117 33.9893 452.85 33.744C452.594 33.488 452.466 33.1733 452.466 32.8C452.466 32.4267 452.594 32.1173 452.85 31.872C453.117 31.616 453.453 31.488 453.858 31.488C454.253 31.488 454.578 31.616 454.834 31.872C455.09 32.1173 455.218 32.4267 455.218 32.8C455.218 33.1733 455.09 33.488 454.834 33.744C454.578 33.9893 454.253 34.112 453.858 34.112Z" fill="#B34B1E"/>
<path d="M0 4C0 6.20914 1.79086 8 4 8C6.20914 8 8 6.20914 8 4C8 1.79086 6.20914 0 4 0C1.79086 0 0 1.79086 0 4ZM3.25 4V9H4.75V4H3.25ZM3.25 19V24H4.75V19H3.25ZM3.25 24C3.25 26.6234 5.37665 28.75 8 28.75V27.25C6.20507 27.25 4.75 25.7949 4.75 24H3.25ZM8 28.75H11.8692V27.25H8V28.75ZM19.6076 28.75H27.3461V27.25H19.6076V28.75ZM35.0845 28.75H42.8229V27.25H35.0845V28.75ZM50.5614 28.75H58.2998V27.25H50.5614V28.75ZM66.0382 28.75H73.7766V27.25H66.0382V28.75ZM81.5151 28.75H89.2535V27.25H81.5151V28.75ZM96.9919 28.75H104.73V27.25H96.9919V28.75ZM112.469 28.75H120.207V27.25H112.469V28.75ZM127.946 28.75H135.684V27.25H127.946V28.75ZM143.422 28.75H151.161V27.25H143.422V28.75ZM158.899 28.75H166.638V27.25H158.899V28.75ZM174.376 28.75H182.115V27.25H174.376V28.75ZM189.853 28.75H197.592V27.25H189.853V28.75ZM205.33 28.75H213.068V27.25H205.33V28.75ZM220.807 28.75H224.676V27.25H220.807V28.75Z" fill="#FEBA9D"/>
<path d="M692 52C692 49.7909 690.209 48 688 48C685.791 48 684 49.7909 684 52C684 54.2091 685.791 56 688 56C690.209 56 692 54.2091 692 52ZM688.75 52V47H687.25V52H688.75ZM688.75 37V32H687.25V37H688.75ZM688.75 32C688.75 29.3766 686.623 27.25 684 27.25V28.75C685.795 28.75 687.25 30.2051 687.25 32H688.75ZM684 27.25H680.131V28.75H684V27.25ZM672.392 27.25H664.654V28.75H672.392V27.25ZM656.916 27.25H649.177V28.75H656.916V27.25ZM641.439 27.25H633.7V28.75H641.439V27.25ZM625.962 27.25H618.223V28.75H625.962V27.25ZM610.485 27.25H602.747V28.75H610.485V27.25ZM595.008 27.25H587.27V28.75H595.008V27.25ZM579.531 27.25H571.793V28.75H579.531V27.25ZM564.054 27.25H556.316V28.75H564.054V27.25ZM548.578 27.25H540.839V28.75H548.578V27.25ZM533.101 27.25H525.362V28.75H533.101V27.25ZM517.624 27.25H509.885V28.75H517.624V27.25ZM502.147 27.25H494.408V28.75H502.147V27.25ZM486.67 27.25H478.932V28.75H486.67V27.25ZM471.193 27.25H467.324V28.75H471.193V27.25Z" fill="#FEBA9D"/>
<defs>
<linearGradient id="paint0_linear_7271_16310" x1="259.6" y1="31.6302" x2="256.662" y2="29.128" gradientUnits="userSpaceOnUse">
<stop stop-color="#B34B1E"/>
<stop offset="1" stop-color="white" stop-opacity="0"/>
</linearGradient>
<linearGradient id="paint1_linear_7271_16310" x1="10.2208" y1="2.82261" x2="3.89514" y2="0.157426" gradientUnits="userSpaceOnUse">
<stop offset="0.0274992" stop-color="#B34B1E"/>
<stop offset="1" stop-color="white" stop-opacity="0"/>
</linearGradient>
<clipPath id="clip0_7271_16310">
<rect width="29.9997" height="30" fill="white" transform="translate(259.6 13)"/>
</clipPath>
</defs>
</svg>
