<svg width="14" height="17" viewBox="0 0 14 17" fill="none" xmlns="http://www.w3.org/2000/svg">
<path d="M11.7619 2.18234C9.16462 -0.414946 4.96899 -0.414946 2.405 2.18234C-0.192293 4.77963 -0.192293 8.94193 2.405 11.5392L7.06681 16.2343L11.7286 11.5725C14.3259 8.97524 14.3259 4.77963 11.7619 2.18234Z" fill="#B34B1E"/>
<path d="M10.2618 10.0391C8.49696 11.8039 5.66656 11.8039 3.90174 10.0391C2.13692 8.27428 2.13692 5.44389 3.90174 3.67908C5.66656 1.91427 8.49696 1.91427 10.2618 3.67908C11.9933 5.44389 11.9933 8.30759 10.2618 10.0391Z" fill="#F6B900"/>
<path d="M3.40234 6.94473L6.39922 7.5441L6.9986 10.541L9.52931 4.41406L3.40234 6.94473Z" fill="#B34B1E"/>
</svg>
