<svg width="36" height="22" viewBox="0 0 36 22" fill="none" xmlns="http://www.w3.org/2000/svg">
<g clip-path="url(#clip0_5807_4396)">
<path opacity="0.07" d="M32.7368 0H3.26316C1.69737 0 0.5 1.18954 0.5 2.7451V19.2157C0.5 20.7712 1.78947 21.9608 3.26316 21.9608H32.7368C34.3026 21.9608 35.5 20.7712 35.5 19.2157V2.7451C35.5 1.18954 34.2105 0 32.7368 0Z" fill="black"/>
<path d="M32.7377 0.914062C33.7508 0.914062 34.5798 1.73759 34.5798 2.74413V19.2147C34.5798 20.2213 33.7508 21.0448 32.7377 21.0448H3.26398C2.25082 21.0448 1.42188 20.2213 1.42188 19.2147V2.74413C1.42188 1.73759 2.25082 0.914062 3.26398 0.914062H32.7377Z" fill="white"/>
<path d="M14.3146 17.3847C17.8753 17.3847 20.7619 14.517 20.7619 10.9794C20.7619 7.44194 17.8753 4.57422 14.3146 4.57422C10.7538 4.57422 7.86719 7.44194 7.86719 10.9794C7.86719 14.517 10.7538 17.3847 14.3146 17.3847Z" fill="#EB001B"/>
<path d="M21.6856 17.3847C25.2464 17.3847 28.133 14.517 28.133 10.9794C28.133 7.44194 25.2464 4.57422 21.6856 4.57422C18.1249 4.57422 15.2383 7.44194 15.2383 10.9794C15.2383 14.517 18.1249 17.3847 21.6856 17.3847Z" fill="#F79E1B"/>
<path d="M20.7646 10.9813C20.7646 8.78523 19.6593 6.86366 18.0014 5.76562C16.3435 6.95517 15.2383 8.87674 15.2383 10.9813C15.2383 13.0859 16.3435 15.099 18.0014 16.197C19.6593 15.099 20.7646 13.1774 20.7646 10.9813Z" fill="#FF5F00"/>
</g>
<defs>
<clipPath id="clip0_5807_4396">
<rect width="35" height="21.9608" fill="white" transform="translate(0.5)"/>
</clipPath>
</defs>
</svg>
