<svg width="17" height="16" viewBox="0 0 17 16" fill="none" xmlns="http://www.w3.org/2000/svg">
<mask id="mask0_5414_3708" style="mask-type:luminance" maskUnits="userSpaceOnUse" x="0" y="-1" width="17" height="17">
<path d="M0.148438 -0.226562H16.1484V15.7734H0.148438V-0.226562Z" fill="white"/>
</mask>
<g mask="url(#mask0_5414_3708)">
<path d="M16.0657 8.5676C16.1573 8.02296 15.7007 7.57201 15.1484 7.57201H1.14844C0.596153 7.57201 0.139619 8.02296 0.231192 8.5676C0.562296 10.5369 1.85912 12.1762 3.61683 12.9899C3.91936 13.13 4.13184 13.4226 4.13184 13.756C4.13184 14.1906 4.48417 14.543 4.9188 14.543H11.3781C11.8127 14.543 12.165 14.1906 12.165 13.756C12.165 13.4226 12.3775 13.13 12.68 12.9899C14.4378 12.1762 15.7346 10.5369 16.0657 8.5676Z" fill="#B34B1E"/>
<path d="M2.00781 9.32812H14.293" stroke="#F6B900" stroke-miterlimit="10" stroke-linecap="round" stroke-linejoin="round"/>
<path d="M5.33362 1.21094C4.81588 1.72869 4.81588 2.56819 5.33362 3.08594C5.85137 3.60369 5.85137 4.44319 5.33362 4.96094" stroke="#F6B900" strokeWidth="0.9375" stroke-miterlimit="10" stroke-linecap="round" stroke-linejoin="round"/>
<path d="M8.14612 1.21094C7.62838 1.72869 7.62838 2.56819 8.14612 3.08594C8.66387 3.60369 8.66387 4.44319 8.14612 4.96094" stroke="#F6B900" strokeWidth="0.9375" stroke-miterlimit="10" stroke-linecap="round" stroke-linejoin="round"/>
<path d="M10.9586 1.21094C10.4409 1.72869 10.4409 2.56819 10.9586 3.08594C11.4764 3.60369 11.4764 4.44319 10.9586 4.96094" stroke="#F6B900" strokeWidth="0.9375" stroke-miterlimit="10" stroke-linecap="round" stroke-linejoin="round"/>
</g>
</svg>
