<svg width="54" height="36" viewBox="0 0 54 36" fill="none" xmlns="http://www.w3.org/2000/svg">
<circle cx="15.4062" cy="21.1602" r="2.13672" fill="url(#paint0_linear_7288_7318)"/>
<ellipse cx="6.96089" cy="17.2077" rx="5.85051" ry="3.7793" transform="rotate(19.6167 6.96089 17.2077)" fill="url(#paint1_linear_7288_7318)"/>
<path d="M47.6719 18C44.1913 18 41.3438 20.8476 41.3438 24.3281C41.3438 27.8087 44.1913 30.6562 47.6719 30.6562C51.1524 30.6562 54 27.8087 54 24.3281C54 20.8476 51.1524 18 47.6719 18ZM47.6719 28.5469C45.3516 28.5469 43.4531 26.6484 43.4531 24.3281C43.4531 22.0079 45.3516 20.1094 47.6719 20.1094C49.9921 20.1094 51.8906 22.0079 51.8906 24.3281C51.8906 26.6484 49.9921 28.5469 47.6719 28.5469Z" fill="#B34B1E"/>
<path d="M24.3281 18C20.8476 18 18 20.8476 18 24.3281C18 27.8087 20.8476 30.6562 24.3281 30.6562C27.8087 30.6562 30.6562 27.8087 30.6562 24.3281C30.6562 20.8476 27.8087 18 24.3281 18ZM24.3281 28.5469C22.0079 28.5469 20.1094 26.6484 20.1094 24.3281C20.1094 22.0079 22.0079 20.1094 24.3281 20.1094C26.6484 20.1094 28.5469 22.0079 28.5469 24.3281C28.5469 26.6484 26.6484 28.5469 24.3281 28.5469Z" fill="#B34B1E"/>
<path d="M26.4375 11.6719H37.125V18H26.4375V11.6719ZM42.3984 7.45312H40.2891C39.7061 7.45312 39.2344 6.9814 39.2344 6.39844C39.2344 5.81548 39.7061 5.34375 40.2891 5.34375H42.3984C42.9814 5.34375 43.4531 5.81548 43.4531 6.39844C43.4531 6.9814 42.9814 7.45312 42.3984 7.45312Z" fill="#F6B900"/>
<path d="M48.2626 25.211C48.0727 25.3164 47.8827 25.3798 47.6719 25.3798C47.3344 25.3798 46.9969 25.211 46.786 24.9158L41.85 17.533C41.5126 17.0478 41.6602 16.3939 42.1242 16.0564C42.6093 15.7399 43.2632 15.8665 43.6008 16.3517L47.6719 22.4057L48.5577 23.7345C48.8742 24.2196 48.7477 24.8735 48.2626 25.211ZM36.0703 22.2157V26.4345H24.3281C23.168 26.4345 22.2188 25.4853 22.2188 24.3251C22.2188 23.1649 23.168 22.2157 24.3281 22.2157H36.0703Z" fill="#F6B900"/>
<path d="M42.3984 5.34375C41.8077 5.34375 41.3438 5.80774 41.3438 6.39844V9.5625H38.1797C37.8212 9.5625 37.5047 9.73132 37.2938 10.0265L33.321 15.8906H30.1711L26.8172 10.8703C26.2688 10.0477 25.3617 9.5625 24.3704 9.5625H19.0547C18.464 9.5625 18 10.0265 18 10.6172C18 13.3173 20.046 15.5741 22.6827 15.8484L26.0578 20.9109C26.6062 21.7336 27.5133 22.2188 28.5046 22.2188H31.057L31.7812 23.5477L32.4141 24.8132C32.9202 25.8047 33.9329 26.4375 35.0719 26.4375H36.6187C38.032 26.4375 39.2344 25.4462 39.5086 24.0539L39.6774 23.3157C40.5211 19.0124 44.339 15.8906 48.7266 15.8906C49.3173 15.8906 49.7812 15.4266 49.7812 14.8359V12.7266C49.7812 8.65547 46.4695 5.34375 42.3984 5.34375Z" fill="#B34B1E"/>
<defs>
<linearGradient id="paint0_linear_7288_7318" x1="17.543" y1="22.3578" x2="14.0166" y2="19.3552" gradientUnits="userSpaceOnUse">
<stop stop-color="#B34B1E"/>
<stop offset="1" stop-color="white" stop-opacity="0"/>
</linearGradient>
<linearGradient id="paint1_linear_7288_7318" x1="13.3755" y1="16.8155" x2="5.7846" y2="13.6173" gradientUnits="userSpaceOnUse">
<stop offset="0.0274992" stop-color="#B34B1E"/>
<stop offset="1" stop-color="white" stop-opacity="0"/>
</linearGradient>
</defs>
</svg>
