<svg width="349" height="24" viewBox="0 0 349 24" fill="none" xmlns="http://www.w3.org/2000/svg">
<path d="M0.333333 12C0.333333 13.4728 1.52724 14.6667 3 14.6667C4.47276 14.6667 5.66667 13.4728 5.66667 12C5.66667 10.5272 4.47276 9.33333 3 9.33333C1.52724 9.33333 0.333333 10.5272 0.333333 12ZM3 12.5H6.84668V11.5H3V12.5ZM14.54 12.5H22.2334V11.5H14.54V12.5ZM29.9268 12.5H37.6201V11.5H29.9268V12.5ZM45.3135 12.5H49.1602V11.5H45.3135V12.5Z" fill="#FEBA9D"/>
<ellipse cx="95.0202" cy="14.1042" rx="1.42447" ry="1.42448" fill="url(#paint0_linear_7271_16192)"/>
<ellipse cx="3.90031" cy="2.51953" rx="3.90031" ry="2.51953" transform="matrix(0.941958 0.335729 -0.335724 0.941961 86.2461 7.78906)" fill="url(#paint1_linear_7271_16192)"/>
<g clip-path="url(#clip0_7271_16192)">
<path d="M116.225 12C113.904 12 112.006 13.8984 112.006 16.2188C112.006 18.5391 113.904 20.4375 116.225 20.4375C118.545 20.4375 120.443 18.5391 120.443 16.2188C120.443 13.8984 118.545 12 116.225 12ZM116.225 19.0312C114.678 19.0312 113.412 17.7656 113.412 16.2188C113.412 14.6719 114.678 13.4062 116.225 13.4062C117.771 13.4062 119.037 14.6719 119.037 16.2188C119.037 17.7656 117.771 19.0312 116.225 19.0312Z" fill="#B34B1E"/>
<path d="M100.662 12C98.3417 12 96.4434 13.8984 96.4434 16.2188C96.4434 18.5391 98.3417 20.4375 100.662 20.4375C102.982 20.4375 104.881 18.5391 104.881 16.2188C104.881 13.8984 102.982 12 100.662 12ZM100.662 19.0312C99.1153 19.0312 97.8496 17.7656 97.8496 16.2188C97.8496 14.6719 99.1153 13.4062 100.662 13.4062C102.209 13.4062 103.475 14.6719 103.475 16.2188C103.475 17.7656 102.209 19.0312 100.662 19.0312Z" fill="#B34B1E"/>
<path d="M102.068 7.78125H109.193V12H102.068V7.78125ZM112.709 4.96875H111.303C110.914 4.96875 110.6 4.65427 110.6 4.26562C110.6 3.87698 110.914 3.5625 111.303 3.5625H112.709C113.098 3.5625 113.412 3.87698 113.412 4.26562C113.412 4.65427 113.098 4.96875 112.709 4.96875Z" fill="#FEBE10"/>
<path d="M116.618 16.8047C116.492 16.875 116.365 16.9173 116.224 16.9173C115.999 16.9173 115.774 16.8047 115.634 16.6079L112.343 11.6861C112.118 11.3626 112.217 10.9266 112.526 10.7017C112.849 10.4907 113.285 10.5751 113.51 10.8985L116.224 14.9345L116.815 15.8204C117.026 16.1438 116.942 16.5798 116.618 16.8047ZM108.49 14.8079V17.6204H100.662C99.8887 17.6204 99.2559 16.9876 99.2559 16.2141C99.2559 15.4407 99.8887 14.8079 100.662 14.8079H108.49Z" fill="#FEBE10"/>
<path d="M112.709 3.5625C112.315 3.5625 112.006 3.87183 112.006 4.26562V6.375H109.896C109.657 6.375 109.446 6.48755 109.306 6.68433L106.657 10.5938H104.557L102.321 7.24688C101.956 6.69844 101.351 6.375 100.69 6.375H97.1465C96.7527 6.375 96.4434 6.68433 96.4434 7.07812C96.4434 8.87817 97.8074 10.3828 99.5652 10.5656L101.815 13.9406C102.181 14.4891 102.785 14.8125 103.446 14.8125H105.148L105.631 15.6984L106.053 16.5421C106.39 17.2031 107.065 17.625 107.825 17.625H108.856C109.798 17.625 110.599 16.9641 110.782 16.0359L110.895 15.5438C111.457 12.675 114.003 10.5938 116.928 10.5938C117.321 10.5938 117.631 10.2844 117.631 9.89062V8.48438C117.631 5.77031 115.423 3.5625 112.709 3.5625Z" fill="#B34B1E"/>
</g>
<path d="M135.369 8.81V11.26H138.659V12.814H135.369V15.404H139.079V17H133.409V7.214H139.079V8.81H135.369ZM145.159 9.132C146.083 9.132 146.829 9.426 147.399 10.014C147.968 10.5927 148.253 11.4047 148.253 12.45V17H146.293V12.716C146.293 12.1 146.139 11.6287 145.831 11.302C145.523 10.966 145.103 10.798 144.571 10.798C144.029 10.798 143.6 10.966 143.283 11.302C142.975 11.6287 142.821 12.1 142.821 12.716V17H140.861V9.244H142.821V10.21C143.082 9.874 143.413 9.61267 143.815 9.426C144.225 9.23 144.673 9.132 145.159 9.132ZM151.11 8.32C150.756 8.32 150.462 8.21267 150.228 7.998C150.004 7.774 149.892 7.49867 149.892 7.172C149.892 6.84533 150.004 6.57467 150.228 6.36C150.462 6.136 150.756 6.024 151.11 6.024C151.456 6.024 151.74 6.136 151.964 6.36C152.188 6.57467 152.3 6.84533 152.3 7.172C152.3 7.49867 152.188 7.774 151.964 7.998C151.74 8.21267 151.456 8.32 151.11 8.32ZM152.076 18.274C152.076 19.1327 151.862 19.7487 151.432 20.122C151.012 20.5047 150.406 20.696 149.612 20.696H148.744V19.03H149.304C149.603 19.03 149.813 18.9693 149.934 18.848C150.056 18.736 150.116 18.5493 150.116 18.288V9.244H152.076V18.274ZM157.457 17.126C156.71 17.126 156.038 16.9627 155.441 16.636C154.844 16.3 154.372 15.8287 154.027 15.222C153.691 14.6153 153.523 13.9153 153.523 13.122C153.523 12.3287 153.696 11.6287 154.041 11.022C154.396 10.4153 154.876 9.94867 155.483 9.622C156.09 9.286 156.766 9.118 157.513 9.118C158.26 9.118 158.936 9.286 159.543 9.622C160.15 9.94867 160.626 10.4153 160.971 11.022C161.326 11.6287 161.503 12.3287 161.503 13.122C161.503 13.9153 161.321 14.6153 160.957 15.222C160.602 15.8287 160.117 16.3 159.501 16.636C158.894 16.9627 158.213 17.126 157.457 17.126ZM157.457 15.418C157.812 15.418 158.143 15.334 158.451 15.166C158.768 14.9887 159.02 14.7273 159.207 14.382C159.394 14.0367 159.487 13.6167 159.487 13.122C159.487 12.3847 159.291 11.82 158.899 11.428C158.516 11.0267 158.045 10.826 157.485 10.826C156.925 10.826 156.454 11.0267 156.071 11.428C155.698 11.82 155.511 12.3847 155.511 13.122C155.511 13.8593 155.693 14.4287 156.057 14.83C156.43 15.222 156.897 15.418 157.457 15.418ZM163.935 8.32C163.589 8.32 163.3 8.21267 163.067 7.998C162.843 7.774 162.731 7.49867 162.731 7.172C162.731 6.84533 162.843 6.57467 163.067 6.36C163.3 6.136 163.589 6.024 163.935 6.024C164.28 6.024 164.565 6.136 164.789 6.36C165.022 6.57467 165.139 6.84533 165.139 7.172C165.139 7.49867 165.022 7.774 164.789 7.998C164.565 8.21267 164.28 8.32 163.935 8.32ZM164.901 9.244V17H162.941V9.244H164.901ZM171.135 9.132C172.059 9.132 172.806 9.426 173.375 10.014C173.944 10.5927 174.229 11.4047 174.229 12.45V17H172.269V12.716C172.269 12.1 172.115 11.6287 171.807 11.302C171.499 10.966 171.079 10.798 170.547 10.798C170.006 10.798 169.576 10.966 169.259 11.302C168.951 11.6287 168.797 12.1 168.797 12.716V17H166.837V9.244H168.797V10.21C169.058 9.874 169.39 9.61267 169.791 9.426C170.202 9.23 170.65 9.132 171.135 9.132ZM181.389 7.228V17H179.429V7.228H181.389ZM187.623 9.132C188.547 9.132 189.294 9.426 189.863 10.014C190.433 10.5927 190.717 11.4047 190.717 12.45V17H188.757V12.716C188.757 12.1 188.603 11.6287 188.295 11.302C187.987 10.966 187.567 10.798 187.035 10.798C186.494 10.798 186.065 10.966 185.747 11.302C185.439 11.6287 185.285 12.1 185.285 12.716V17H183.325V9.244H185.285V10.21C185.547 9.874 185.878 9.61267 186.279 9.426C186.69 9.23 187.138 9.132 187.623 9.132ZM204.023 7.228V17H202.063V12.842H197.877V17H195.917V7.228H197.877V11.246H202.063V7.228H204.023ZM205.448 13.094C205.448 12.31 205.602 11.6147 205.91 11.008C206.228 10.4013 206.652 9.93467 207.184 9.608C207.726 9.28133 208.328 9.118 208.99 9.118C209.569 9.118 210.073 9.23467 210.502 9.468C210.941 9.70133 211.291 9.99533 211.552 10.35V9.244H213.526V17H211.552V15.866C211.3 16.23 210.95 16.5333 210.502 16.776C210.064 17.0093 209.555 17.126 208.976 17.126C208.323 17.126 207.726 16.958 207.184 16.622C206.652 16.286 206.228 15.8147 205.91 15.208C205.602 14.592 205.448 13.8873 205.448 13.094ZM211.552 13.122C211.552 12.646 211.459 12.24 211.272 11.904C211.086 11.5587 210.834 11.2973 210.516 11.12C210.199 10.9333 209.858 10.84 209.494 10.84C209.13 10.84 208.794 10.9287 208.486 11.106C208.178 11.2833 207.926 11.5447 207.73 11.89C207.544 12.226 207.45 12.6273 207.45 13.094C207.45 13.5607 207.544 13.9713 207.73 14.326C207.926 14.6713 208.178 14.9373 208.486 15.124C208.804 15.3107 209.14 15.404 209.494 15.404C209.858 15.404 210.199 15.3153 210.516 15.138C210.834 14.9513 211.086 14.69 211.272 14.354C211.459 14.0087 211.552 13.598 211.552 13.122ZM225.581 10.168C225.357 9.75733 225.049 9.44467 224.657 9.23C224.265 9.01533 223.807 8.908 223.285 8.908C222.706 8.908 222.193 9.03867 221.745 9.3C221.297 9.56133 220.947 9.93467 220.695 10.42C220.443 10.9053 220.317 11.4653 220.317 12.1C220.317 12.7533 220.443 13.3227 220.695 13.808C220.956 14.2933 221.315 14.6667 221.773 14.928C222.23 15.1893 222.762 15.32 223.369 15.32C224.115 15.32 224.727 15.124 225.203 14.732C225.679 14.3307 225.991 13.7753 226.141 13.066H222.781V11.568H228.073V13.276C227.942 13.9573 227.662 14.5873 227.233 15.166C226.803 15.7447 226.248 16.2113 225.567 16.566C224.895 16.9113 224.139 17.084 223.299 17.084C222.356 17.084 221.502 16.874 220.737 16.454C219.981 16.0247 219.383 15.432 218.945 14.676C218.515 13.92 218.301 13.0613 218.301 12.1C218.301 11.1387 218.515 10.28 218.945 9.524C219.383 8.75867 219.981 8.166 220.737 7.746C221.502 7.31667 222.351 7.102 223.285 7.102C224.386 7.102 225.343 7.37267 226.155 7.914C226.967 8.446 227.527 9.19733 227.835 10.168H225.581ZM230.517 8.32C230.171 8.32 229.882 8.21267 229.649 7.998C229.425 7.774 229.313 7.49867 229.313 7.172C229.313 6.84533 229.425 6.57467 229.649 6.36C229.882 6.136 230.171 6.024 230.517 6.024C230.862 6.024 231.147 6.136 231.371 6.36C231.604 6.57467 231.721 6.84533 231.721 7.172C231.721 7.49867 231.604 7.774 231.371 7.998C231.147 8.21267 230.862 8.32 230.517 8.32ZM231.483 9.244V17H229.523V9.244H231.483ZM232.915 13.094C232.915 12.31 233.069 11.6147 233.377 11.008C233.694 10.4013 234.119 9.93467 234.651 9.608C235.192 9.28133 235.794 9.118 236.457 9.118C237.036 9.118 237.54 9.23467 237.969 9.468C238.408 9.70133 238.758 9.99533 239.019 10.35V9.244H240.993V17H239.019V15.866C238.767 16.23 238.417 16.5333 237.969 16.776C237.53 17.0093 237.022 17.126 236.443 17.126C235.79 17.126 235.192 16.958 234.651 16.622C234.119 16.286 233.694 15.8147 233.377 15.208C233.069 14.592 232.915 13.8873 232.915 13.094ZM239.019 13.122C239.019 12.646 238.926 12.24 238.739 11.904C238.552 11.5587 238.3 11.2973 237.983 11.12C237.666 10.9333 237.325 10.84 236.961 10.84C236.597 10.84 236.261 10.9287 235.953 11.106C235.645 11.2833 235.393 11.5447 235.197 11.89C235.01 12.226 234.917 12.6273 234.917 13.094C234.917 13.5607 235.01 13.9713 235.197 14.326C235.393 14.6713 235.645 14.9373 235.953 15.124C236.27 15.3107 236.606 15.404 236.961 15.404C237.325 15.404 237.666 15.3153 237.983 15.138C238.3 14.9513 238.552 14.69 238.739 14.354C238.926 14.0087 239.019 13.598 239.019 13.122ZM247.205 9.132C248.129 9.132 248.876 9.426 249.445 10.014C250.015 10.5927 250.299 11.4047 250.299 12.45V17H248.339V12.716C248.339 12.1 248.185 11.6287 247.877 11.302C247.569 10.966 247.149 10.798 246.617 10.798C246.076 10.798 245.647 10.966 245.329 11.302C245.021 11.6287 244.867 12.1 244.867 12.716V17H242.907V9.244H244.867V10.21C245.129 9.874 245.46 9.61267 245.861 9.426C246.272 9.23 246.72 9.132 247.205 9.132ZM255.201 9.118C255.78 9.118 256.289 9.23467 256.727 9.468C257.166 9.692 257.511 9.986 257.763 10.35V9.244H259.737V17.056C259.737 17.7747 259.593 18.414 259.303 18.974C259.014 19.5433 258.58 19.9913 258.001 20.318C257.423 20.654 256.723 20.822 255.901 20.822C254.8 20.822 253.895 20.5653 253.185 20.052C252.485 19.5387 252.089 18.8387 251.995 17.952H253.941C254.044 18.3067 254.263 18.5867 254.599 18.792C254.945 19.0067 255.36 19.114 255.845 19.114C256.415 19.114 256.877 18.9413 257.231 18.596C257.586 18.26 257.763 17.7467 257.763 17.056V15.852C257.511 16.216 257.161 16.5193 256.713 16.762C256.275 17.0047 255.771 17.126 255.201 17.126C254.548 17.126 253.951 16.958 253.409 16.622C252.868 16.286 252.439 15.8147 252.121 15.208C251.813 14.592 251.659 13.8873 251.659 13.094C251.659 12.31 251.813 11.6147 252.121 11.008C252.439 10.4013 252.863 9.93467 253.395 9.608C253.937 9.28133 254.539 9.118 255.201 9.118ZM257.763 13.122C257.763 12.646 257.67 12.24 257.483 11.904C257.297 11.5587 257.045 11.2973 256.727 11.12C256.41 10.9333 256.069 10.84 255.705 10.84C255.341 10.84 255.005 10.9287 254.697 11.106C254.389 11.2833 254.137 11.5447 253.941 11.89C253.755 12.226 253.661 12.6273 253.661 13.094C253.661 13.5607 253.755 13.9713 253.941 14.326C254.137 14.6713 254.389 14.9373 254.697 15.124C255.015 15.3107 255.351 15.404 255.705 15.404C256.069 15.404 256.41 15.3153 256.727 15.138C257.045 14.9513 257.297 14.69 257.483 14.354C257.67 14.0087 257.763 13.598 257.763 13.122ZM262.52 17.098C262.165 17.098 261.871 16.9907 261.638 16.776C261.414 16.552 261.302 16.2767 261.302 15.95C261.302 15.6233 261.414 15.3527 261.638 15.138C261.871 14.914 262.165 14.802 262.52 14.802C262.865 14.802 263.15 14.914 263.374 15.138C263.598 15.3527 263.71 15.6233 263.71 15.95C263.71 16.2767 263.598 16.552 263.374 16.776C263.15 16.9907 262.865 17.098 262.52 17.098Z" fill="#B34B1E"/>
<path d="M343.333 12C343.333 13.4728 344.527 14.6667 346 14.6667C347.473 14.6667 348.667 13.4728 348.667 12C348.667 10.5272 347.473 9.33333 346 9.33333C344.527 9.33333 343.333 10.5272 343.333 12ZM299.84 12.5H303.687V11.5H299.84V12.5ZM311.38 12.5H319.073V11.5H311.38V12.5ZM326.767 12.5H334.46V11.5H326.767V12.5ZM342.153 12.5H346V11.5H342.153V12.5Z" fill="#FEBA9D"/>
<defs>
<linearGradient id="paint0_linear_7271_16192" x1="96.4446" y1="14.9026" x2="94.0938" y2="12.9009" gradientUnits="userSpaceOnUse">
<stop stop-color="#B34B1E"/>
<stop offset="1" stop-color="white" stop-opacity="0"/>
</linearGradient>
<linearGradient id="paint1_linear_7271_16192" x1="8.17667" y1="2.25809" x2="3.11611" y2="0.125941" gradientUnits="userSpaceOnUse">
<stop offset="0.0274992" stop-color="#B34B1E"/>
<stop offset="1" stop-color="white" stop-opacity="0"/>
</linearGradient>
<clipPath id="clip0_7271_16192">
<rect width="23.9998" height="24" fill="white" transform="translate(96.4434)"/>
</clipPath>
</defs>
</svg>
