<svg width="25" height="32" viewBox="0 0 25 32" fill="none" xmlns="http://www.w3.org/2000/svg">
<path d="M20.0078 16.0625H5.00781C4.49006 16.0625 4.07031 16.4822 4.07031 17V23.5C4.07031 24.0177 4.49006 24.4375 5.00781 24.4375H20.0078C20.5256 24.4375 20.9453 24.0177 20.9453 23.5V17C20.9453 16.4822 20.5256 16.0625 20.0078 16.0625Z" fill="#B34B1E"/>
<path d="M22.4453 10.0625H2.57031C1.18963 10.0625 0.0703125 11.1818 0.0703125 12.5625V15.4375C0.0703125 16.8182 1.18963 17.9375 2.57031 17.9375H22.4453C23.826 17.9375 24.9453 16.8182 24.9453 15.4375V12.5625C24.9453 11.1818 23.826 10.0625 22.4453 10.0625Z" fill="#B34B1E"/>
<path d="M19.4453 22.7802L18.9368 21.9548L18.1953 20.3104L16.4453 19.2188H8.57031L6.82031 20.3104L5.07031 20.1521L3.62206 20.5383C2.11963 20.939 1.07031 22.3048 1.07031 23.8597V29.2516L8.05206 32.0016H12.5078L20.7016 28.16L21.0717 25.5016C21.0717 23.9466 20.9478 23.1809 19.4453 22.7802Z" fill="#B34B1E"/>
<path d="M21.3935 20.5382L19.9453 20.1521L18.1953 20.3104L16.4453 19.2188H12.5078V32.0015H16.9636L23.9453 29.2515V23.8597C23.9453 22.3047 22.896 20.9389 21.3935 20.5382Z" fill="#B34B1E"/>
<path d="M16.4453 26.4375H8.57031C8.05256 26.4375 7.63281 26.0178 7.63281 25.5C7.63281 24.9822 8.05256 24.5625 8.57031 24.5625H16.4453C16.9631 24.5625 17.3828 24.9822 17.3828 25.5C17.3828 26.0178 16.9631 26.4375 16.4453 26.4375Z" fill="white"/>
<path d="M5.07031 20.1521V32.0015H8.05206C8.07325 31.8957 8.57031 28.5705 8.57031 26.5015V20.2515L9.19531 19.8087L8.57031 19.2188L5.07031 20.1521Z" fill="white"/>
<path d="M16.4453 19.2188L15.8203 19.7768L16.4453 20.2515V26.5015C16.4453 28.5705 16.9424 31.8957 16.9636 32.0015H19.9453V20.1521L16.4453 19.2188Z" fill="white"/>
<path d="M21.8203 25.0625H19.9453C18.5646 25.0625 17.4453 26.1818 17.4453 27.5625V29.5C17.4453 30.8807 18.5646 32 19.9453 32H21.8203C23.201 32 24.3203 30.8807 24.3203 29.5V27.5625C24.3203 26.1818 23.201 25.0625 21.8203 25.0625Z" fill="#F6B900"/>
<path d="M5.07031 25.0625H3.19531C1.81463 25.0625 0.695312 26.1818 0.695312 27.5625V29.5C0.695312 30.8807 1.81463 32 3.19531 32H5.07031C6.451 32 7.57031 30.8807 7.57031 29.5V27.5625C7.57031 26.1818 6.451 25.0625 5.07031 25.0625Z" fill="#F6B900"/>
<path d="M15.5078 14.5H9.50781C8.99006 14.5 8.57031 14.9197 8.57031 15.4375V20.25L11.9767 22.7726C12.133 22.88 12.3182 22.9375 12.5078 22.9375C12.5078 22.9375 14.0326 20.9484 14.1926 20.8384L14.7748 18.2656L16.4453 15.4375C16.4453 14.9197 16.0256 14.5 15.5078 14.5Z" fill="#F6B900"/>
<path d="M15.5078 14.5H12.5078V22.9375C12.6934 22.9375 12.8789 22.8825 13.0389 22.7726L16.4453 20.25V15.4375C16.4453 14.9197 16.0256 14.5 15.5078 14.5Z" fill="#F6B900"/>
<path d="M17.5078 7.0625H7.50781C6.99006 7.0625 6.57031 7.48225 6.57031 8V12.5C6.57031 15.7739 9.23388 18.4375 12.5078 18.4375C12.5078 18.4375 14.9453 15.7739 14.9453 12.5L18.4453 8C18.4453 7.48225 18.0256 7.0625 17.5078 7.0625Z" fill="#F6B900"/>
<path d="M17.5078 7.0625H12.5078V18.4375C15.7817 18.4375 18.4453 15.7739 18.4453 12.5V8C18.4453 7.48225 18.0256 7.0625 17.5078 7.0625Z" fill="#F6B900"/>
<path d="M19.5078 0H10.0078C8.11238 0 6.57031 1.54206 6.57031 3.4375V4.5C6.57031 5.01775 6.99006 5.4375 7.50781 5.4375H17.5078C17.6612 5.4375 17.8122 5.39988 17.9476 5.32794C18.0496 5.27375 20.4453 3.96619 20.4453 0.9375C20.4453 0.41975 20.0256 0 19.5078 0Z" fill="#F6B900"/>
<path d="M18.5078 4.5H6.50781C5.99006 4.5 5.57031 4.91975 5.57031 5.4375V8C5.57031 8.51775 5.99006 8.9375 6.50781 8.9375H18.5078C19.0256 8.9375 19.4453 8.51775 19.4453 8V5.4375C19.4453 4.91975 19.0256 4.5 18.5078 4.5Z" fill="#B34B1E"/>
</svg>
