<svg width="36" height="22" viewBox="0 0 36 22" fill="none" xmlns="http://www.w3.org/2000/svg">
<g clip-path="url(#clip0_5807_4394)">
<path opacity="0.07" d="M32.7368 0H3.26316C1.69737 0 0.5 1.18954 0.5 2.7451V19.2157C0.5 20.7712 1.78947 21.9608 3.26316 21.9608H32.7368C34.3026 21.9608 35.5 20.7712 35.5 19.2157V2.7451C35.5 1.18954 34.2105 0 32.7368 0Z" fill="black"/>
<path d="M32.7377 0.914062C33.7508 0.914062 34.5798 1.73759 34.5798 2.74413V19.2147C34.5798 20.2213 33.7508 21.0448 32.7377 21.0448H3.26398C2.25082 21.0448 1.42188 20.2213 1.42188 19.2147V2.74413C1.42188 1.73759 2.25082 0.914062 3.26398 0.914062H32.7377Z" fill="white"/>
<path d="M26.566 9.24188H26.2897C25.9213 10.1569 25.6449 10.6144 25.3686 11.987H27.1186C26.8423 10.6144 26.8423 9.97391 26.566 9.24188ZM29.237 14.6406H27.6713C27.5792 14.6406 27.5792 14.6406 27.487 14.5491L27.3028 13.7255L27.2107 13.5425H25.0002C24.9081 13.5425 24.816 13.5425 24.816 13.7255L24.5397 14.5491C24.5397 14.6406 24.4476 14.6406 24.4476 14.6406H22.5134L22.6976 14.1831L25.3686 7.96084C25.3686 7.50332 25.6449 7.32031 26.1055 7.32031H27.487C27.5792 7.32031 27.6713 7.32031 27.6713 7.50332L28.9607 13.451C29.0528 13.817 29.1449 14.0916 29.1449 14.4576C29.237 14.5491 29.237 14.5491 29.237 14.6406ZM16.8949 14.3661L17.2634 12.719C17.3555 12.719 17.4476 12.8105 17.4476 12.8105C18.0923 13.085 18.737 13.268 19.3818 13.1765C19.566 13.1765 19.8423 13.085 20.0265 12.9935C20.487 12.8105 20.487 12.353 20.1186 11.987C19.9344 11.804 19.6581 11.7125 19.3818 11.5295C19.0134 11.3465 18.6449 11.1634 18.3686 10.8889C17.2634 9.97391 17.6318 8.69286 18.2765 8.05234C18.8292 7.68633 19.1055 7.32031 19.8423 7.32031C20.9476 7.32031 22.1449 7.32031 22.6976 7.50332H22.7897C22.6976 8.05234 22.6055 8.50985 22.4213 9.05887C21.9607 8.87587 21.5002 8.69286 21.0397 8.69286C20.7634 8.69286 20.487 8.69286 20.2107 8.78437C20.0265 8.78437 19.9344 8.87587 19.8423 8.96737C19.6581 9.15038 19.6581 9.42489 19.8423 9.60789L20.3028 9.97391C20.6713 10.1569 21.0397 10.3399 21.316 10.5229C21.7765 10.7974 22.237 11.255 22.3292 11.804C22.5134 12.6275 22.237 13.3595 21.5002 13.9085C21.0397 14.2746 20.8555 14.4576 20.2107 14.4576C18.9213 14.4576 17.9081 14.5491 17.0792 14.2746C16.987 14.4576 16.987 14.4576 16.8949 14.3661ZM13.6713 14.6406C13.7634 14.0001 13.7634 14.0001 13.8555 13.7255C14.316 11.7125 14.7765 9.60789 15.1449 7.59482C15.237 7.41182 15.237 7.32031 15.4213 7.32031H17.0792C16.8949 8.41835 16.7107 9.24188 16.4344 10.2484C16.1581 11.621 15.8818 12.9935 15.5134 14.3661C15.5134 14.5491 15.4213 14.5491 15.237 14.5491M5.10547 7.50332C5.10547 7.41182 5.28968 7.32031 5.38178 7.32031H8.51336C8.97389 7.32031 9.34231 7.59482 9.43442 8.05234L10.2634 12.0785C10.2634 12.17 10.2634 12.17 10.3555 12.2615C10.3555 12.17 10.4476 12.17 10.4476 12.17L12.3818 7.50332C12.2897 7.41182 12.3818 7.32031 12.4739 7.32031H14.4081C14.4081 7.41182 14.4081 7.41182 14.316 7.50332L11.4607 14.1831C11.3686 14.3661 11.3686 14.4576 11.2765 14.5491C11.1844 14.6406 11.0002 14.5491 10.816 14.5491H9.43442C9.34231 14.5491 9.25021 14.5491 9.25021 14.3661L7.77652 8.69286C7.59231 8.50986 7.31599 8.23534 6.94757 8.14384C6.39494 7.86933 5.38178 7.68633 5.19757 7.68633L5.10547 7.50332Z" fill="#142688"/>
</g>
<defs>
<clipPath id="clip0_5807_4394">
<rect width="35" height="21.9608" fill="white" transform="translate(0.5)"/>
</clipPath>
</defs>
</svg>
