<svg width="100" height="76" viewBox="0 0 100 76" fill="none" xmlns="http://www.w3.org/2000/svg">
<path d="M26.1337 74.3416C19.9632 74.1567 13.7932 73.8664 7.62396 73.4705C2.45404 73.0799 -1.85065 66.4823 0.860286 62.0409C8.32904 49.6034 18.3837 36.1346 27.7294 22.5116C30.5556 18.41 35.665 18.3045 38.1767 22.3514C39.7978 24.9569 41.4755 27.5721 43.1865 30.1912L26.1337 74.3416Z" fill="#437D14"/>
<path d="M99.1673 63.6644C94.4329 55.7816 88.599 47.4535 82.6029 38.9496C79.9017 35.141 74.8001 35.0238 72.3685 38.8207C72.0898 39.2556 71.8086 39.6911 71.5247 40.1273C69.8978 42.6293 66.4466 42.6234 64.7552 40.0921C61.6556 35.4476 58.597 30.7972 55.724 26.182C53.3509 22.3597 48.5247 22.471 45.8568 26.3324C37.0228 39.1996 27.5286 51.9183 20.4661 63.6644C17.9056 67.8617 21.972 74.1 26.8548 74.4593C38.0697 75.1781 49.2858 75.5303 60.5033 75.516C65.3132 75.5082 70.1237 75.4339 74.9349 75.2933C80.8802 75.1188 86.8255 74.8408 92.7708 74.4593C97.6615 74.098 101.726 67.8617 99.1673 63.6644Z" fill="#437D14"/>
<path d="M70.5254 22.6367C76.6448 22.6367 81.6055 17.676 81.6055 11.5566C81.6055 5.43728 76.6448 0.476562 70.5254 0.476562C64.406 0.476562 59.4453 5.43728 59.4453 11.5566C59.4453 17.676 64.406 22.6367 70.5254 22.6367Z" fill="#FED35F"/>
</svg>
