<svg width="100" height="100" viewBox="0 0 100 100" fill="none" xmlns="http://www.w3.org/2000/svg">
<g clip-path="url(#clip0_7271_13001)">
<path d="M23.0639 27.2123L27.2061 23.0703L35.4904 31.3545L31.3482 35.4967L23.0639 27.2123ZM23.0596 72.7832L31.3438 64.499L35.4859 68.6412L27.2016 76.9256L23.0596 72.7832ZM14.8438 47.0703H26.5625V52.9297H14.8438V47.0703ZM50 14.8438H47.0703V26.5625H52.9297V14.8438H50Z" fill="#FED35F"/>
<path d="M50 14.8438H52.9297V26.5625H50V14.8438ZM64.4883 68.6455L68.6307 64.5035L76.9148 72.7877L72.7728 76.9299L64.4883 68.6455ZM64.493 31.3586L72.7771 23.0744L76.9193 27.2164L68.635 35.5008L64.493 31.3586ZM73.4375 47.0703H85.1562V52.9297H73.4375V47.0703Z" fill="#FED35F"/>
<path d="M50 73.4375H47.0703V85.1562H52.9297V73.4375H50Z" fill="#FED35F"/>
<path d="M50 73.4375H52.9297V85.1562H50V73.4375Z" fill="#FED35F"/>
<path d="M50 82.2266C45.1535 82.2266 41.2109 86.1691 41.2109 91.0156C41.2109 95.8621 45.1535 100 50 100C54.8465 100 58.7891 95.8621 58.7891 91.0156C58.7891 86.1691 54.8465 82.2266 50 82.2266Z" fill="#437D14"/>
<path d="M58.7891 91.0097C58.7891 86.1632 54.8465 82.2207 50 82.2207V99.9941C54.8465 99.9941 58.7891 95.8562 58.7891 91.0097ZM72.7881 27.206C69.3605 23.7785 69.3605 18.2052 72.7881 14.7777C76.2156 11.3501 81.7889 11.3501 85.2164 14.7777C88.644 18.2052 88.644 23.7785 85.2164 27.206C81.7922 30.6302 76.2156 30.6335 72.7881 27.206ZM72.7881 85.2105C69.3605 81.783 69.3605 76.2097 72.7881 72.7822C76.2156 69.3546 81.7889 69.3546 85.2164 72.7822C88.644 76.2097 88.644 81.783 85.2164 85.2105C81.7922 88.6345 76.2156 88.638 72.7881 85.2105Z" fill="#437D14"/>
<path d="M14.7777 85.2105C11.3501 81.783 11.3501 76.2097 14.7777 72.7822C18.2052 69.3546 23.7785 69.3546 27.206 72.7822C30.6335 76.2097 30.6335 81.783 27.206 85.2105C23.782 88.6345 18.2052 88.638 14.7777 85.2105ZM14.7777 27.206C11.3501 23.7785 11.3501 18.2052 14.7777 14.7777C18.2052 11.3501 23.7785 11.3501 27.206 14.7777C30.6335 18.2052 30.6335 23.7785 27.206 27.206C23.782 30.6302 18.2052 30.6335 14.7777 27.206Z" fill="#437D14"/>
<path d="M91.0156 58.7891C86.1691 58.7891 82.2266 54.8465 82.2266 50C82.2266 45.1535 86.1691 41.2109 91.0156 41.2109C95.8621 41.2109 100 45.1535 100 50C100 54.8465 95.8621 58.7891 91.0156 58.7891Z" fill="#437D14"/>
<path d="M8.98438 58.7891C4.13789 58.7891 0 54.8465 0 50C0 45.1535 4.13789 41.2109 8.98438 41.2109C13.8309 41.2109 17.7734 45.1535 17.7734 50C17.7734 54.8465 13.8309 58.7891 8.98438 58.7891Z" fill="#437D14"/>
<path d="M50 76.3672C64.5622 76.3672 76.3672 64.5622 76.3672 50C76.3672 35.4378 64.5622 23.6328 50 23.6328C35.4378 23.6328 23.6328 35.4378 23.6328 50C23.6328 64.5622 35.4378 76.3672 50 76.3672Z" fill="#437D14"/>
<path d="M49.9904 52.9297C44.1238 52.9297 39.0521 56.3974 36.7157 61.3904C35.8157 63.3136 36.5217 65.5729 38.2592 66.7936C41.5845 69.1297 45.6272 70.5078 49.9904 70.5078C54.3536 70.5078 58.3963 69.1297 61.7216 66.7936C63.4591 65.5729 64.1652 63.3136 63.2652 61.3904C60.9287 56.3974 55.8571 52.9297 49.9904 52.9297Z" fill="#FED35F"/>
<path d="M50 52.9297C54.8541 52.9297 58.7891 48.9947 58.7891 44.1406C58.7891 39.2866 54.8541 35.3516 50 35.3516C45.1459 35.3516 41.2109 39.2866 41.2109 44.1406C41.2109 48.9947 45.1459 52.9297 50 52.9297Z" fill="#FED35F"/>
<path d="M50 0C45.1535 0 41.2109 4.13789 41.2109 8.98438C41.2109 13.8309 45.1535 17.7734 50 17.7734C54.8465 17.7734 58.7891 13.8309 58.7891 8.98438C58.7891 4.13789 54.8465 0 50 0Z" fill="#437D14"/>
<path d="M58.7891 8.98438C58.7891 4.13789 54.8465 0 50 0V17.7734C54.8465 17.7734 58.7891 13.8309 58.7891 8.98438Z" fill="#437D14"/>
</g>
<defs>
<clipPath id="clip0_7271_13001">
<rect width="100" height="100" fill="white"/>
</clipPath>
</defs>
</svg>
