<svg width="17" height="16" viewBox="0 0 17 16" fill="none" xmlns="http://www.w3.org/2000/svg">
<path d="M14.102 -0.00195312H2.90195C1.57647 -0.00195312 0.501953 1.07252 0.501953 2.39795V13.5975C0.501953 14.9229 1.57647 15.9974 2.90195 15.9974H14.102C15.4274 15.9974 16.502 14.9229 16.502 13.5975V2.39795C16.502 1.07252 15.4274 -0.00195312 14.102 -0.00195312Z" fill="white"/>
<mask id="mask0_7637_8898" style="mask-type:luminance" maskUnits="userSpaceOnUse" x="0" y="-1" width="17" height="17">
<path d="M14.1078 -0.00390625H2.90781C1.58233 -0.00390625 0.507812 1.07057 0.507812 2.396V13.5955C0.507812 14.921 1.58233 15.9954 2.90781 15.9954H14.1078C15.4333 15.9954 16.5078 14.921 16.5078 13.5955V2.396C16.5078 1.07057 15.4333 -0.00390625 14.1078 -0.00390625Z" fill="white"/>
</mask>
<g mask="url(#mask0_7637_8898)">
<path d="M0.507812 15.9954V-0.00390625H16.5078L0.507812 15.9954Z" fill="#35A85B"/>
<path d="M8.50781 8.99609L1.50781 15.9958H15.5078L8.50781 8.99609Z" fill="#5881CA"/>
<path d="M9.50781 7.99581L16.5078 0.996094V14.9955L9.50781 7.99581Z" fill="#C1C0BE"/>
<path d="M0.507812 15.9954L16.5078 -0.00390625L0.507812 15.9954Z" fill="black"/>
<path d="M0.507812 15.9954L16.5078 -0.00390625" stroke="#FADB2A" strokeWidth="2.21871"/>
<path d="M5.97699 5.40258H7.53949C7.52369 5.78858 7.38571 6.15703 7.14861 6.44637C6.91151 6.73571 6.58964 6.92841 6.23679 6.99228C5.88395 7.05614 5.52149 6.98731 5.20999 6.79727C4.89849 6.60722 4.65681 6.30749 4.52534 5.94815C4.39387 5.58881 4.38057 5.19163 4.48766 4.82297C4.59474 4.45431 4.81574 4.1365 5.11371 3.92265C5.41169 3.70881 5.76859 3.61187 6.12479 3.64804C6.48099 3.68421 6.8149 3.85129 7.07074 4.12138" stroke="#F2F2F2" strokeWidth="0.687486"/>
<path d="M11.5391 2.65226C11.5391 2.07212 11.7695 1.51574 12.1798 1.10552C12.59 0.695303 13.1464 0.464844 13.7266 0.464844C14.3067 0.464844 14.8631 0.695303 15.2734 1.10552C15.6836 1.51574 15.9141 2.07212 15.9141 2.65226C15.9141 4.83967 13.7266 4.83967 13.7266 7.55831C13.7266 4.83967 11.5391 4.83967 11.5391 2.65226Z" fill="#DE3738"/>
<path d="M13.7266 3.55853C14.158 3.55853 14.5078 3.20877 14.5078 2.77731C14.5078 2.34586 14.158 1.99609 13.7266 1.99609C13.2951 1.99609 12.9453 2.34586 12.9453 2.77731C12.9453 3.20877 13.2951 3.55853 13.7266 3.55853Z" fill="#7D2426"/>
</g>
</svg>
