<svg xmlns="http://www.w3.org/2000/svg" width="16" height="16" viewBox="0 0 16 16" fill="none">
  <path d="M8 16C12.4183 16 16 12.4183 16 8C16 3.58172 12.4183 0 8 0C3.58172 0 0 3.58172 0 8C0 12.4183 3.58172 16 8 16Z" fill="#B34B1E"/>
  <path d="M8.2017 9.78824C8.55501 10.1415 8.55501 10.7472 8.2017 11.1005L7.46983 11.8324C7.11652 12.1857 6.51084 12.1857 6.15753 11.8324L2.95248 8.60212C2.59917 8.2488 2.59917 7.64313 2.95248 7.28981L3.68435 6.55795C4.03766 6.20464 4.64334 6.20464 4.99665 6.55795L8.2017 9.78824Z" fill="white"/>
  <path d="M11.0026 4.2142C11.3559 3.86089 11.9616 3.86089 12.3149 4.2142L13.0467 4.94606C13.4001 5.29938 13.4001 5.90505 13.0467 6.25837L7.4947 11.7852C7.14138 12.1385 6.5357 12.1385 6.18239 11.7852L5.45053 11.0533C5.09722 10.7 5.09722 10.0943 5.45053 9.74102L11.0026 4.2142Z" fill="white"/>
</svg>