<svg width="79" height="100" viewBox="0 0 79 100" fill="none" xmlns="http://www.w3.org/2000/svg">
<path d="M20.2399 88.9834L34.1749 55.3424L22.9845 50.707L6.9294 89.4662C6.25303 91.0992 7.78331 92.782 9.47296 92.2637L18.5767 89.4699C18.8343 89.3891 19.1056 89.3612 19.3743 89.3879L20.2399 88.9834Z" fill="#FED35F"/>
<path d="M33.5641 55.0781L19.3594 89.3705C19.7061 89.401 20.0398 89.5176 20.3299 89.7099C20.6201 89.9021 20.8576 90.1639 21.0209 90.4713L25.4826 98.8842C26.3107 100.446 28.5828 100.338 29.2594 98.7049L45.3145 59.9455L33.5641 55.0781Z" fill="#FED35F"/>
<path d="M45.7309 54.957L33.668 59.9539L49.723 98.7133C50.3994 100.346 52.6715 100.454 53.4998 98.8926L57.9615 90.4797C58.0952 90.2273 58.2792 90.005 58.5023 89.8268L59.5947 88.4461L45.7309 54.957Z" fill="#FED35F"/>
<path d="M72.0768 89.4664L56.0217 50.707L44.3125 55.5572L58.5121 89.8369C58.7776 89.6242 59.0911 89.4796 59.4253 89.4156C59.7594 89.3517 60.1042 89.3703 60.4295 89.4699L69.5332 92.2637C71.223 92.7824 72.7533 91.0994 72.0768 89.4664Z" fill="#FED35F"/>
<path d="M43.5194 1.40508C44.3465 2.06125 45.3212 2.50562 46.359 2.69963C47.3968 2.89364 48.4662 2.83142 49.4745 2.51836C52.353 1.62441 55.4679 2.83125 56.9929 5.43106C57.527 6.3417 58.2754 7.10819 59.173 7.66397C60.0707 8.21976 61.0904 8.54804 62.1436 8.62031C65.1507 8.82656 67.6192 11.0771 68.1022 14.0523C68.2714 15.0945 68.6924 16.0796 69.3286 16.9221C69.9649 17.7646 70.7971 18.439 71.7532 18.8869C74.4827 20.1656 75.9716 23.1559 75.3472 26.1045C75.1284 27.1373 75.1651 28.208 75.454 29.2234C75.7429 30.2389 76.2753 31.1684 77.005 31.9314C79.0882 34.1098 79.3964 37.4359 77.7489 39.96C77.1718 40.844 76.8193 41.8556 76.7218 42.9069C76.6244 43.9582 76.7851 45.0173 77.1899 45.9924C78.3456 48.7762 77.4313 51.9891 74.9835 53.7475C74.126 54.3634 73.4319 55.1793 72.9613 56.1244C72.4907 57.0694 72.2579 58.1151 72.2831 59.1705C72.3552 62.1838 70.3421 64.8494 67.4241 65.6049C66.402 65.8695 65.46 66.3796 64.6798 67.0908C63.8996 67.8021 63.3047 68.693 62.947 69.6863C61.9257 72.5221 59.0854 74.2807 56.0917 73.9309C55.0431 73.8084 53.9804 73.9437 52.9959 74.3251C52.0114 74.7065 51.1349 75.3224 50.4425 76.1193C48.4657 78.3947 45.1821 79.0084 42.5169 77.601C41.5833 77.1079 40.5435 76.8503 39.4878 76.8503C38.432 76.8503 37.3922 77.1079 36.4587 77.601C33.7934 79.0086 30.5099 78.3947 28.5331 76.1193C27.8407 75.3223 26.9642 74.7064 25.9797 74.325C24.9952 73.9436 23.9325 73.8083 22.8839 73.9309C19.8901 74.2807 17.0501 72.5221 16.0286 69.6863C15.6709 68.693 15.076 67.8021 14.2958 67.0908C13.5156 66.3795 12.5735 65.8695 11.5515 65.6049C8.63349 64.8496 6.62041 62.1838 6.69248 59.1705C6.71769 58.1151 6.4849 57.0694 6.01431 56.1244C5.54372 55.1793 4.84955 54.3634 3.99209 53.7475C1.54404 51.9891 0.629978 48.7762 1.78564 45.9924C2.19046 45.0173 2.35114 43.9582 2.25373 42.9069C2.15631 41.8556 1.80375 40.844 1.22666 39.96C-0.420803 37.4359 -0.112601 34.1098 1.9706 31.9314C2.70027 31.1684 3.23268 30.2389 3.52162 29.2234C3.81055 28.208 3.84728 27.1374 3.62861 26.1045C3.0042 23.1559 4.49306 20.1654 7.22256 18.8869C8.17859 18.439 9.01085 17.7645 9.64709 16.922C10.2833 16.0795 10.7043 15.0945 10.8735 14.0523C11.3563 11.0771 13.8251 8.82676 16.8321 8.62031C17.8854 8.54804 18.9051 8.21976 19.8027 7.66397C20.7003 7.10819 21.4487 6.3417 21.9829 5.43106C23.5079 2.83125 26.6229 1.62461 29.5013 2.51836C30.5095 2.83147 31.579 2.89372 32.6168 2.69971C33.6545 2.5057 34.6293 2.06129 35.4563 1.40508C37.8177 -0.468359 41.1583 -0.468359 43.5194 1.40508Z" fill="#437D14"/>
<path d="M57.1791 39.1582C57.1791 25.9346 48.6482 14.7041 36.79 10.668C22.2488 12.025 10.8672 24.2623 10.8672 39.1582C10.8672 54.0541 22.2488 66.2914 36.79 67.6484C48.6484 63.6123 57.1791 52.382 57.1791 39.1582Z" fill="#437D14"/>
<path d="M39.5059 10.5703C37.3615 10.5693 35.2239 10.8085 33.1328 11.2836C45.8688 14.1805 55.375 25.5725 55.375 39.1856C55.375 52.7986 45.8688 64.1906 33.1328 67.0875C35.2239 67.5626 37.3615 67.8018 39.5059 67.8008C55.3096 67.8008 68.1211 54.9893 68.1211 39.1856C68.1211 23.3818 55.3096 10.5703 39.5059 10.5703Z" fill="#437D14"/>
<path d="M50.1611 56.7914C51.2535 57.5268 52.6688 56.4984 52.307 55.2322L51.7141 53.1566C51.0789 54.286 50.3679 55.3711 49.5859 56.4043L50.1611 56.7914ZM58.0787 32.424L54.5365 32.2969C54.9753 34.0816 55.2409 35.9045 55.3299 37.7402L58.8984 34.9467C59.9352 34.1352 59.3945 32.4713 58.0787 32.424Z" fill="#FED35F"/>
<path d="M40.2888 50.1529L50.1652 56.8009C50.5534 57.0623 50.9825 57.1007 51.3581 56.9851C51.7075 56.5102 52.043 56.0252 52.3642 55.5308C52.3561 55.433 52.3384 55.3363 52.3113 55.2419L49.0406 43.7947C48.9634 43.5246 48.9685 43.2376 49.0553 42.9705C49.1421 42.7034 49.3067 42.4682 49.5279 42.2951L57.0704 36.3906C56.9468 35.0388 56.7317 33.697 56.4265 32.3744L46.1851 32.007C45.9044 31.997 45.6331 31.9034 45.4058 31.7383C45.1786 31.5732 45.0058 31.3441 44.9095 31.0802L40.8267 19.8964C40.3751 18.6595 38.6257 18.6595 38.1741 19.8964L34.0915 31.0798C33.9952 31.3437 33.8224 31.5728 33.5952 31.7379C33.3679 31.903 33.0966 31.9965 32.8159 32.0066L20.9183 32.4333C19.6023 32.4806 19.0618 34.1443 20.0986 34.956L29.4732 42.2947C29.6943 42.4678 29.8588 42.703 29.9456 42.9701C30.0324 43.2373 30.0376 43.5242 29.9605 43.7943L26.6898 55.2416C26.3281 56.5078 27.7433 57.5359 28.8357 56.8007L38.712 50.1527C38.9451 49.996 39.2196 49.9123 39.5004 49.9123C39.7813 49.9124 40.0558 49.9961 40.2888 50.1529Z" fill="#FED35F"/>
</svg>
