<svg width="88" height="100" viewBox="0 0 88 100" fill="none" xmlns="http://www.w3.org/2000/svg">
<path d="M87.6378 25.749C87.5838 23.0477 87.5341 20.4979 87.5341 18.0311C87.5341 16.0975 85.9029 14.5311 83.8893 14.5311C68.3013 14.5311 56.4315 10.2282 46.5386 0.991705C45.8602 0.354746 44.9488 -0.00131566 44 3.65329e-06C43.0818 3.65329e-06 42.1657 0.329879 41.4571 0.991705C31.5642 10.2282 19.6987 14.5311 4.11068 14.5311C2.09926 14.5311 0.465917 16.0975 0.465917 18.0311C0.465917 20.4979 0.416226 23.0498 0.362214 25.751C-0.136862 50.8755 -0.821738 85.2863 42.8052 99.8071C43.192 99.9357 43.5938 100 43.9978 100H44C44.404 100 44.8059 99.9357 45.1904 99.8071C88.8217 85.2863 88.1369 50.8734 87.6378 25.749Z" fill="#437D14"/>
<path d="M64.1168 42.1917V53.8837C64.1168 54.9617 63.2438 55.8366 62.1639 55.8366H51.7625V66.2396C51.7625 67.3176 50.8876 68.1925 49.8096 68.1925H38.1177C37.0397 68.1925 36.1648 67.3176 36.1648 66.2396V55.8366H25.7615C24.6815 55.8366 23.8086 54.9617 23.8086 53.8837V42.1917C23.8086 41.1137 24.6815 40.2388 25.7615 40.2388H36.1648V29.8357C36.1648 28.7577 37.0397 27.8828 38.1177 27.8828H49.8098C50.8878 27.8828 51.7627 28.7577 51.7627 29.8357V40.2388H62.1641C63.2438 40.2388 64.1168 41.1137 64.1168 42.1917Z" fill="#FED35F"/>
</svg>
