<svg xmlns="http://www.w3.org/2000/svg" width="14" height="16" viewBox="0 0 14 16" fill="none">
  <circle cx="2.99805" cy="11.375" r="2" fill="#F6B900"/>
  <circle cx="10.998" cy="11.375" r="2" fill="#F6B900"/>
  <path d="M7.00053 0.00390625C3.2784 0.00390625 0.263672 0.424972 0.263672 3.37232V11.7934C0.263672 12.5386 0.592093 13.1997 1.10576 13.6628V15.1618C1.10576 15.625 1.48471 16.0039 1.94786 16.0039H2.78999C3.25736 16.0039 3.63208 15.625 3.63208 15.1618V14.3197H10.3689V15.1618C10.3689 15.625 10.7437 16.0039 11.211 16.0039H12.0531C12.5163 16.0039 12.8952 15.625 12.8952 15.1618V13.6629C13.4089 13.1997 13.7373 12.5387 13.7373 11.7934V3.37232C13.7374 0.424972 10.7226 0.00390625 7.00053 0.00390625ZM3.21106 12.6355C2.51209 12.6355 1.9479 12.0713 1.9479 11.3723C1.9479 10.6734 2.51209 10.1092 3.21106 10.1092C3.91002 10.1092 4.47422 10.6734 4.47422 11.3723C4.47422 12.0713 3.90998 12.6355 3.21106 12.6355ZM10.79 12.6355C10.091 12.6355 9.52685 12.0713 9.52685 11.3723C9.52685 10.6734 10.091 10.1092 10.79 10.1092C11.489 10.1092 12.0532 10.6734 12.0532 11.3723C12.0532 12.0713 11.4889 12.6355 10.79 12.6355ZM12.0532 7.58286H1.9479V3.37232H12.0532V7.58286Z" fill="#B34B1E"/>
</svg>