<svg width="218" height="218" viewBox="0 0 218 218" fill="none" xmlns="http://www.w3.org/2000/svg">
<g filter="url(#filter0_b_7520_9781)">
<circle cx="109" cy="109" r="109" fill="url(#paint0_linear_7520_9781)" fill-opacity="0.6"/>
</g>
<g clip-path="url(#clip0_7520_9781)">
<path d="M89.2399 147.983L103.175 114.342L91.9845 109.707L75.9294 148.466C75.253 150.099 76.7833 151.782 78.473 151.264L87.5767 148.47C87.8343 148.389 88.1056 148.361 88.3743 148.388L89.2399 147.983Z" fill="#FED35F"/>
<path d="M102.564 114.078L88.3594 148.371C88.7061 148.401 89.0398 148.518 89.3299 148.71C89.6201 148.902 89.8576 149.164 90.0209 149.471L94.4826 157.884C95.3107 159.446 97.5828 159.338 98.2594 157.705L114.314 118.946L102.564 114.078Z" fill="#FED35F"/>
<path d="M114.731 113.957L102.668 118.954L118.723 157.713C119.399 159.346 121.671 159.454 122.5 157.893L126.962 149.48C127.095 149.227 127.279 149.005 127.502 148.827L128.595 147.446L114.731 113.957Z" fill="#FED35F"/>
<path d="M141.077 148.466L125.022 109.707L113.312 114.557L127.512 148.837C127.778 148.624 128.091 148.48 128.425 148.416C128.759 148.352 129.104 148.37 129.429 148.47L138.533 151.264C140.223 151.782 141.753 150.099 141.077 148.466Z" fill="#FED35F"/>
<path d="M112.519 60.4051C113.346 61.0612 114.321 61.5056 115.359 61.6996C116.397 61.8936 117.466 61.8314 118.475 61.5184C121.353 60.6244 124.468 61.8313 125.993 64.4311C126.527 65.3417 127.275 66.1082 128.173 66.664C129.071 67.2198 130.09 67.548 131.144 67.6203C134.151 67.8266 136.619 70.0771 137.102 73.0523C137.271 74.0945 137.692 75.0796 138.329 75.9221C138.965 76.7646 139.797 77.439 140.753 77.8869C143.483 79.1656 144.972 82.1559 144.347 85.1045C144.128 86.1373 144.165 87.208 144.454 88.2234C144.743 89.2389 145.275 90.1684 146.005 90.9314C148.088 93.1098 148.396 96.4359 146.749 98.96C146.172 99.844 145.819 100.856 145.722 101.907C145.624 102.958 145.785 104.017 146.19 104.992C147.346 107.776 146.431 110.989 143.983 112.747C143.126 113.363 142.432 114.179 141.961 115.124C141.491 116.069 141.258 117.115 141.283 118.171C141.355 121.184 139.342 123.849 136.424 124.605C135.402 124.869 134.46 125.38 133.68 126.091C132.9 126.802 132.305 127.693 131.947 128.686C130.926 131.522 128.085 133.281 125.092 132.931C124.043 132.808 122.98 132.944 121.996 133.325C121.011 133.706 120.135 134.322 119.442 135.119C117.466 137.395 114.182 138.008 111.517 136.601C110.583 136.108 109.544 135.85 108.488 135.85C107.432 135.85 106.392 136.108 105.459 136.601C102.793 138.009 99.5099 137.395 97.5331 135.119C96.8407 134.322 95.9642 133.706 94.9797 133.325C93.9952 132.944 92.9325 132.808 91.8839 132.931C88.8901 133.281 86.0501 131.522 85.0286 128.686C84.6709 127.693 84.076 126.802 83.2958 126.091C82.5156 125.38 81.5735 124.869 80.5515 124.605C77.6335 123.85 75.6204 121.184 75.6925 118.171C75.7177 117.115 75.4849 116.069 75.0143 115.124C74.5437 114.179 73.8496 113.363 72.9921 112.747C70.544 110.989 69.63 107.776 70.7856 104.992C71.1905 104.017 71.3511 102.958 71.2537 101.907C71.1563 100.856 70.8038 99.844 70.2267 98.96C68.5792 96.4359 68.8874 93.1098 70.9706 90.9314C71.7003 90.1684 72.2327 89.2389 72.5216 88.2234C72.8106 87.208 72.8473 86.1374 72.6286 85.1045C72.0042 82.1559 73.4931 79.1654 76.2226 77.8869C77.1786 77.439 78.0108 76.7645 78.6471 75.922C79.2833 75.0795 79.7043 74.0945 79.8735 73.0523C80.3563 70.0771 82.8251 67.8268 85.8321 67.6203C86.8854 67.548 87.9051 67.2198 88.8027 66.664C89.7003 66.1082 90.4487 65.3417 90.9829 64.4311C92.5079 61.8313 95.6229 60.6246 98.5013 61.5184C99.5095 61.8315 100.579 61.8937 101.617 61.6997C102.655 61.5057 103.629 61.0613 104.456 60.4051C106.818 58.5316 110.158 58.5316 112.519 60.4051Z" fill="#437D14"/>
<path d="M126.179 98.1582C126.179 84.9346 117.648 73.7041 105.79 69.668C91.2488 71.025 79.8672 83.2623 79.8672 98.1582C79.8672 113.054 91.2488 125.291 105.79 126.648C117.648 122.612 126.179 111.382 126.179 98.1582Z" fill="#437D14"/>
<path d="M108.506 69.5703C106.362 69.5693 104.224 69.8085 102.133 70.2836C114.869 73.1805 124.375 84.5725 124.375 98.1856C124.375 111.799 114.869 123.191 102.133 126.088C104.224 126.563 106.362 126.802 108.506 126.801C124.31 126.801 137.121 113.989 137.121 98.1856C137.121 82.3818 124.31 69.5703 108.506 69.5703Z" fill="#437D14"/>
<path d="M119.161 115.791C120.254 116.527 121.669 115.498 121.307 114.232L120.714 112.157C120.079 113.286 119.368 114.371 118.586 115.404L119.161 115.791ZM127.079 91.424L123.537 91.2969C123.975 93.0816 124.241 94.9045 124.33 96.7402L127.898 93.9467C128.935 93.1352 128.395 91.4713 127.079 91.424Z" fill="#FED35F"/>
<path d="M109.289 109.153L119.165 115.801C119.553 116.062 119.983 116.101 120.358 115.985C120.708 115.51 121.043 115.025 121.364 114.531C121.356 114.433 121.338 114.336 121.311 114.242L118.041 102.795C117.963 102.525 117.969 102.238 118.055 101.97C118.142 101.703 118.307 101.468 118.528 101.295L126.07 95.3906C125.947 94.0388 125.732 92.697 125.426 91.3744L115.185 91.007C114.904 90.997 114.633 90.9034 114.406 90.7383C114.179 90.5732 114.006 90.3441 113.909 90.0802L109.827 78.8964C109.375 77.6595 107.626 77.6595 107.174 78.8964L103.092 90.0798C102.995 90.3437 102.822 90.5728 102.595 90.7379C102.368 90.903 102.097 90.9965 101.816 91.0066L89.9183 91.4333C88.6023 91.4806 88.0618 93.1443 89.0986 93.956L98.4732 101.295C98.6943 101.468 98.8588 101.703 98.9456 101.97C99.0324 102.237 99.0376 102.524 98.9605 102.794L95.6898 114.242C95.3281 115.508 96.7433 116.536 97.8357 115.801L107.712 109.153C107.945 108.996 108.22 108.912 108.5 108.912C108.781 108.912 109.056 108.996 109.289 109.153Z" fill="#FED35F"/>
</g>
<defs>
<filter id="filter0_b_7520_9781" x="-52" y="-52" width="322" height="322" filterUnits="userSpaceOnUse" color-interpolation-filters="sRGB">
<feFlood flood-opacity="0" result="BackgroundImageFix"/>
<feGaussianBlur in="BackgroundImageFix" stdDeviation="26"/>
<feComposite in2="SourceAlpha" operator="in" result="effect1_backgroundBlur_7520_9781"/>
<feBlend mode="normal" in="SourceGraphic" in2="effect1_backgroundBlur_7520_9781" result="shape"/>
</filter>
<linearGradient id="paint0_linear_7520_9781" x1="109" y1="0" x2="109" y2="218" gradientUnits="userSpaceOnUse">
<stop offset="0.0787934" stop-color="#F6B900"/>
<stop offset="0.984901" stop-color="white" stop-opacity="0"/>
</linearGradient>
<clipPath id="clip0_7520_9781">
<rect width="100" height="100" fill="white" transform="translate(58.5 59)"/>
</clipPath>
</defs>
</svg>
