<svg width="218" height="218" viewBox="0 0 218 218" fill="none" xmlns="http://www.w3.org/2000/svg">
<g filter="url(#filter0_b_7520_9783)">
<circle cx="109" cy="109" r="109" fill="url(#paint0_linear_7520_9783)" fill-opacity="0.6"/>
</g>
<g clip-path="url(#clip0_7520_9783)">
<path d="M82.0639 86.2123L86.2061 82.0703L94.4904 90.3545L90.3482 94.4967L82.0639 86.2123ZM82.0596 131.783L90.3437 123.499L94.4859 127.641L86.2016 135.926L82.0596 131.783ZM73.8438 106.07H85.5625V111.93H73.8438V106.07ZM109 73.8438H106.07V85.5625H111.93V73.8438H109Z" fill="#FED35F"/>
<path d="M109 73.8438H111.93V85.5625H109V73.8438ZM123.488 127.646L127.631 123.504L135.915 131.788L131.773 135.93L123.488 127.646ZM123.493 90.3586L131.777 82.0744L135.919 86.2164L127.635 94.5008L123.493 90.3586ZM132.438 106.07H144.156V111.93H132.438V106.07Z" fill="#FED35F"/>
<path d="M109 132.438H106.07V144.156H111.93V132.438H109Z" fill="#FED35F"/>
<path d="M109 132.438H111.93V144.156H109V132.438Z" fill="#FED35F"/>
<path d="M109 141.227C104.154 141.227 100.211 145.169 100.211 150.016C100.211 154.862 104.154 159 109 159C113.846 159 117.789 154.862 117.789 150.016C117.789 145.169 113.846 141.227 109 141.227Z" fill="#437D14"/>
<path d="M117.789 150.01C117.789 145.163 113.846 141.221 109 141.221V158.994C113.846 158.994 117.789 154.856 117.789 150.01ZM131.788 86.206C128.361 82.7785 128.361 77.2052 131.788 73.7777C135.216 70.3501 140.789 70.3501 144.216 73.7777C147.644 77.2052 147.644 82.7785 144.216 86.206C140.792 89.6302 135.216 89.6335 131.788 86.206ZM131.788 144.211C128.361 140.783 128.361 135.21 131.788 131.782C135.216 128.355 140.789 128.355 144.216 131.782C147.644 135.21 147.644 140.783 144.216 144.211C140.792 147.635 135.216 147.638 131.788 144.211Z" fill="#437D14"/>
<path d="M73.7777 144.211C70.3501 140.783 70.3501 135.21 73.7777 131.782C77.2052 128.355 82.7785 128.355 86.206 131.782C89.6335 135.21 89.6335 140.783 86.206 144.211C82.782 147.635 77.2052 147.638 73.7777 144.211ZM73.7777 86.206C70.3501 82.7785 70.3501 77.2052 73.7777 73.7777C77.2052 70.3501 82.7785 70.3501 86.206 73.7777C89.6335 77.2052 89.6335 82.7785 86.206 86.206C82.782 89.6302 77.2052 89.6335 73.7777 86.206Z" fill="#437D14"/>
<path d="M150.016 117.789C145.169 117.789 141.227 113.846 141.227 109C141.227 104.154 145.169 100.211 150.016 100.211C154.862 100.211 159 104.154 159 109C159 113.846 154.862 117.789 150.016 117.789Z" fill="#437D14"/>
<path d="M67.9844 117.789C63.1379 117.789 59 113.846 59 109C59 104.154 63.1379 100.211 67.9844 100.211C72.8309 100.211 76.7734 104.154 76.7734 109C76.7734 113.846 72.8309 117.789 67.9844 117.789Z" fill="#437D14"/>
<path d="M109 135.367C123.562 135.367 135.367 123.562 135.367 109C135.367 94.4378 123.562 82.6328 109 82.6328C94.4378 82.6328 82.6328 94.4378 82.6328 109C82.6328 123.562 94.4378 135.367 109 135.367Z" fill="#437D14"/>
<path d="M108.99 111.93C103.124 111.93 98.0521 115.397 95.7157 120.39C94.8157 122.314 95.5217 124.573 97.2592 125.794C100.585 128.13 104.627 129.508 108.99 129.508C113.354 129.508 117.396 128.13 120.722 125.794C122.459 124.573 123.165 122.314 122.265 120.39C119.929 115.397 114.857 111.93 108.99 111.93Z" fill="#FED35F"/>
<path d="M109 111.93C113.854 111.93 117.789 107.995 117.789 103.141C117.789 98.2866 113.854 94.3516 109 94.3516C104.146 94.3516 100.211 98.2866 100.211 103.141C100.211 107.995 104.146 111.93 109 111.93Z" fill="#FED35F"/>
<path d="M109 59C104.154 59 100.211 63.1379 100.211 67.9844C100.211 72.8309 104.154 76.7734 109 76.7734C113.846 76.7734 117.789 72.8309 117.789 67.9844C117.789 63.1379 113.846 59 109 59Z" fill="#437D14"/>
<path d="M117.789 67.9844C117.789 63.1379 113.846 59 109 59V76.7734C113.846 76.7734 117.789 72.8309 117.789 67.9844Z" fill="#437D14"/>
</g>
<defs>
<filter id="filter0_b_7520_9783" x="-52" y="-52" width="322" height="322" filterUnits="userSpaceOnUse" color-interpolation-filters="sRGB">
<feFlood flood-opacity="0" result="BackgroundImageFix"/>
<feGaussianBlur in="BackgroundImageFix" stdDeviation="26"/>
<feComposite in2="SourceAlpha" operator="in" result="effect1_backgroundBlur_7520_9783"/>
<feBlend mode="normal" in="SourceGraphic" in2="effect1_backgroundBlur_7520_9783" result="shape"/>
</filter>
<linearGradient id="paint0_linear_7520_9783" x1="109" y1="0" x2="109" y2="218" gradientUnits="userSpaceOnUse">
<stop offset="0.0787934" stop-color="#F6B900"/>
<stop offset="0.984901" stop-color="white" stop-opacity="0"/>
</linearGradient>
<clipPath id="clip0_7520_9783">
<rect width="100" height="100" fill="white" transform="translate(59 59)"/>
</clipPath>
</defs>
</svg>
