<svg width="340" height="83" viewBox="0 0 340 83" fill="none" xmlns="http://www.w3.org/2000/svg">
<path d="M232.952 13.0756C232.896 13.2076 232.859 13.434 232.794 13.4435C232.515 13.4812 232.228 13.4623 231.856 13.4623C232.423 13.9717 233.677 13.9245 234.113 13.4623C234.606 12.9529 234.652 12.9718 235.042 13.6227C235.107 13.7359 235.321 13.7453 235.442 13.8396C235.47 13.8585 235.377 14.0566 235.349 14.1226C236.575 14.283 237.792 14.5094 239.009 14.5754C239.771 14.6132 240.449 14.283 241.109 13.6982C241.573 13.2831 242.381 13.3303 243.032 13.1888C243.301 13.1322 243.57 13.1133 243.84 13.0756L243.812 12.7926C243.478 12.8303 243.143 12.8775 242.818 12.8963C242.549 12.8963 242.279 12.8963 242.019 12.8209C241.954 12.802 241.889 12.4058 241.926 12.387C242.13 12.2643 242.372 12.1511 242.604 12.1134C243.58 11.9813 244.546 11.8776 245.521 11.7644L245.521 11.4342C241.034 11.038 236.538 10.6513 232.005 10.2551C232.005 10.34 231.995 10.4155 231.986 10.4815C231.949 10.7645 230.397 12.236 230.156 12.1983C229.208 12.0474 228.307 11.9153 227.332 12.3587C226.691 12.6511 225.845 12.4153 225.093 12.2738C225.613 12.2266 226.133 12.1889 226.728 12.1323C226.328 11.3022 225.79 11.5286 225.288 11.5569C224.944 11.5757 224.591 11.538 224.257 11.4908C223.56 11.3965 222.873 11.255 222.176 11.189C221.108 11.0852 220.039 10.9531 218.971 11.0003C218.441 11.0286 218.033 11.0192 217.68 10.4626C217.94 10.4249 218.163 10.4155 218.386 10.3589C219.649 10.057 220.829 9.80231 222.185 10.3117C223.244 10.7079 224.535 10.3872 225.725 10.3117C224.238 10.123 222.752 9.9438 221.265 9.75514L221.265 9.41555C222.232 9.32122 223.198 9.23633 224.164 9.142L224.145 8.86844L223.541 8.59488L223.514 8.40622C224.015 8.31189 224.517 8.14209 225.019 8.13266C225.548 8.12323 226.078 8.25529 226.607 8.33075C226.616 8.22699 226.626 8.12323 226.635 8.01946C225 7.9157 223.374 7.80251 221.739 7.69874L221.739 7.45348C223.012 6.82147 224.387 7.25539 225.734 7.20822C225.79 7.01013 225.836 6.81204 225.91 6.53848C223.969 6.30265 221.999 6.06683 219.937 5.82157C220.03 5.58574 220.095 5.43481 220.169 5.24615C219.157 4.93486 218.246 5.12352 217.336 5.37821L217.336 5.68007C218.135 5.7744 218.934 5.87817 219.881 5.99136C219.463 6.56678 219.25 6.93467 218.636 6.53848C218.367 6.35925 217.865 6.62338 217.429 6.69884C217.104 6.57621 216.695 6.32152 216.286 6.29322C214.456 6.18002 212.626 6.18002 210.796 6.04796C209.235 5.93476 207.684 5.6895 206.132 5.53858C205.668 5.49141 205.101 5.93476 204.804 4.95373C206.179 5.08579 207.498 5.23672 208.808 5.34048C209.904 5.43481 211 5.50084 212.096 5.52914C212.747 5.54801 213.406 5.49141 214.057 5.43481C214.28 5.41595 214.484 5.27445 214.707 5.23672C214.874 5.20842 215.162 5.18012 215.199 5.25559C215.627 6.23662 216.333 5.48198 216.899 5.7461C216.723 4.51981 215.877 4.76507 215.246 4.64244C214.41 4.48208 213.555 4.38775 212.728 4.13305C216.816 4.6613 220.968 4.28398 224.991 5.56688L225.065 5.31218C224.963 5.17069 224.861 5.02919 224.758 4.8877L224.833 4.75563C225.139 4.98203 225.427 5.23672 225.743 5.43481C226.013 5.59517 226.449 5.8876 226.589 5.78384C227.443 5.11409 228.409 5.42538 229.32 5.30275C230.249 5.18012 231.187 5.08579 232.116 5.03863C233.073 4.98203 234.039 5.00089 235.005 4.97259C235.2 4.97259 235.386 4.8877 235.581 4.84053L235.581 4.62357C234.754 4.44434 233.918 4.25568 233.091 4.07646L233.091 3.96326C233.863 3.8878 234.624 3.75573 235.377 3.75573C236.315 3.75573 237.263 3.78403 238.182 3.96326C238.805 4.08589 239.399 4.7745 239.957 4.70847C240.542 4.63301 241.081 4.35001 241.74 4.47264C242.483 4.61414 243.32 4.79337 244.007 4.55754C245.159 4.17079 246.292 4.31228 247.435 4.27455C248.503 4.24625 249.562 4.39718 250.631 4.40661C251.244 4.40661 251.866 4.30285 252.479 4.26512C252.739 4.24625 253.027 4.17079 253.241 4.27455C254.579 4.916 255.972 4.60471 257.338 4.61414C257.988 4.61414 258.639 4.48208 259.298 4.46321C259.465 4.46321 259.642 4.78393 259.8 4.76507C260.283 4.70847 260.747 4.54811 261.221 4.44435C261.537 4.36888 261.862 4.22739 262.169 4.27455C262.986 4.38775 263.785 4.57641 264.742 4.76507C264.631 4.35945 264.584 4.19909 264.5 3.9161C266.033 4.18965 267.473 4.44435 268.969 4.70847L268.783 4.05759C269.015 4.03873 269.22 4.00099 269.415 4.00099C270.938 4.04816 272.453 4.07646 273.967 4.16136C274.701 4.19909 275.425 4.39718 276.159 4.40661C276.475 4.40661 276.81 4.15192 277.088 3.93496C277.163 3.87836 277.116 3.39728 277.042 3.36898C276.484 3.13315 275.908 2.93506 275.332 2.7747C274.84 2.64264 274.311 2.85016 273.976 2.06722C273.855 1.7748 272.908 1.79366 272.35 1.85026C271.328 1.96346 270.316 2.21815 269.303 2.42568C269.183 2.45398 269.071 2.50114 268.783 2.6049C269.573 2.86903 270.186 3.08599 270.808 3.29352L270.78 3.48218C269.954 3.43501 269.127 3.38785 268.17 3.33125C268.439 2.56717 268.272 2.32191 267.659 2.31248C267.26 2.31248 266.869 2.04835 266.47 1.95402C266.173 1.87856 265.81 1.38804 265.569 2.06722C265.55 2.12382 265.197 2.11439 265.188 2.08609C265.039 1.37861 264.528 1.65217 264.157 1.6333C263.023 1.56727 261.89 1.47294 260.757 1.49181C259.837 1.51067 258.917 1.67103 257.998 1.7748L257.97 1.51067C259.168 1.38804 260.366 1.21825 261.574 1.15222C263.776 1.02015 265.978 0.869225 268.179 0.859792C269.731 0.850359 271.291 1.00129 272.852 1.16165C275.49 1.43521 278.119 1.75593 280.748 2.07665C281.947 2.21815 283.136 2.41624 284.334 2.56717C286.815 2.87846 289.295 3.17089 291.785 3.57651C290.949 3.57651 290.103 3.61424 289.267 3.57651C287.233 3.48218 285.198 3.35011 283.164 3.22748L283.108 3.58594C283.35 3.6614 283.582 3.7746 283.823 3.8029C286.74 4.13306 289.667 4.41605 292.574 4.8028C293.838 4.9726 295.092 5.32162 296.337 5.67064C296.941 5.84044 297.498 6.21776 298.093 6.45358C298.316 6.53848 298.585 6.46302 298.929 6.46302C298.78 6.20833 298.715 6.10456 298.613 5.92533L302.7 6.22719C302.459 6.46302 302.347 6.57621 302.171 6.74601C302.97 7.40632 303.899 7.36859 304.781 7.31199C306.435 7.20823 308.079 7.0007 309.723 6.84977C309.807 6.84977 309.9 6.89694 310.188 6.98183C309.751 7.1422 309.528 7.22709 309.287 7.31199C309.361 8.04777 309.751 7.944 310.197 7.81194C310.615 7.68931 311.043 7.64215 311.47 7.58555C312.696 7.44405 313.913 7.31199 315.139 7.1705L315.121 7.1705C314.266 7.35916 313.412 7.57612 312.548 7.77421C312.12 7.86854 311.693 7.944 311.275 8.16096C312.38 8.24586 313.477 8.89674 314.526 8.10437C316.579 9.1986 318.781 8.68921 320.89 9.0571L320.936 8.72695C320.267 8.58545 319.589 8.44396 318.93 8.30246C319.004 8.27416 319.134 8.16097 319.255 8.1704C321.169 8.31189 323.082 8.47225 324.987 8.63262C325.618 8.68921 325.767 9.15143 325.758 9.61365C326.854 10.5758 327.894 11.4908 328.981 12.4436C328.247 13.3586 327.365 12.4341 326.585 12.67C326.705 13.4623 327.077 13.8397 327.811 13.8397C328.052 13.8397 328.285 14.1321 328.582 14.3302C328.312 14.8207 328.034 15.2169 327.885 15.6791C327.839 15.8206 328.127 16.1979 328.34 16.3111C328.814 16.5752 329.344 16.745 329.845 16.9526L329.901 17.2733C329.502 17.4525 329.093 17.6129 328.712 17.8298C328.452 17.9808 328.229 18.226 327.885 18.5279C328.731 18.8958 329.474 19.2259 330.226 19.5561C330.226 19.6693 330.217 19.7825 330.208 19.8862C329.641 20.0372 329.065 20.1787 328.498 20.3296C330.969 21.1031 333.125 22.735 335.744 23.1218L335.624 23.5085C334.481 23.2255 333.348 22.8954 332.205 22.6595C331.192 22.452 330.161 22.3011 329.13 22.1973C328.944 22.1785 328.731 22.4992 328.517 22.6218C328.331 22.7256 328.117 22.8388 327.922 22.8482C327.504 22.8576 327.086 22.801 326.789 22.7822C326.585 23.1689 326.445 23.433 326.241 23.8198C327.198 24.0934 328.164 24.3669 329.316 24.6971C328.266 24.9706 327.421 25.1876 326.389 25.4517C326.687 25.6875 326.9 25.8668 327.235 26.1309L324.141 26.1309L324.095 26.2913C324.457 26.4328 324.819 26.5743 325.154 26.6969C325.061 26.7912 324.922 26.9233 324.792 27.0553C324.922 27.1874 325.033 27.4044 325.172 27.4327C325.711 27.5553 326.269 27.6119 326.808 27.6968C327.095 27.7439 327.393 27.7911 327.681 28.0364C327.095 28.1213 326.51 28.2156 325.934 28.3005L325.934 28.6684C326.808 28.7344 327.671 28.8099 328.6 28.8759C328.545 29.0834 328.498 29.2438 328.415 29.5362C329.288 29.64 330.096 29.7438 330.904 29.8381L330.904 29.9607C330.31 30.0739 329.697 30.1871 329.093 30.2909L329.093 30.4512C329.687 30.6588 330.273 30.8757 330.858 31.0832L330.802 31.3191C329.985 31.1776 329.158 31.0361 328.34 30.8946L328.285 31.1681C328.916 31.3945 329.659 31.47 330.152 31.8945C330.588 32.2718 330.746 33.0359 331.062 33.6962C330.31 33.5075 329.576 33.3283 328.851 33.1491C328.833 33.234 328.805 33.3189 328.786 33.4038C329.195 33.5924 329.622 33.7622 330.013 33.9981C330.152 34.0829 330.208 34.3565 330.3 34.5357C330.143 34.6018 329.975 34.7244 329.827 34.715C329.204 34.6772 328.573 34.5923 327.867 34.5169C327.894 34.7621 327.913 34.9319 327.959 35.3092C327.272 35.2149 326.631 35.13 325.99 35.0357L325.953 35.2243C327.142 35.5356 328.322 35.8469 329.511 36.1488L329.483 36.328C328.823 36.5072 328.173 36.677 327.402 36.8846L327.764 36.4223C327.374 36.328 327.04 36.2525 326.594 36.1488C326.742 37.1958 326.232 37.1109 325.637 36.9789C325.321 36.9129 324.977 36.9695 324.643 37.111C324.996 37.2902 325.377 37.4222 325.702 37.6675C325.981 37.875 326.185 38.2052 326.538 38.6108C327.699 38.9598 329.084 39.3843 330.458 39.7994C330.44 39.9126 330.421 40.0258 330.403 40.1295C328.647 39.856 326.9 39.5824 325.145 39.3088L325.107 39.5352C327.133 40.1578 329.158 40.7804 331.183 41.403L331.183 41.4879C329.734 41.2615 328.285 41.0445 326.845 40.8181C326.835 40.903 326.826 40.9879 326.808 41.0728C329.399 41.7614 331.991 42.4595 334.583 43.1481L334.546 43.3651C333.236 43.1481 331.908 42.9972 330.616 42.6953C328.461 42.1859 326.306 41.6671 324.086 41.5916C323.537 41.5728 322.989 41.6388 322.441 41.6482C321.661 41.6577 320.871 41.6482 320.082 41.8086C326.399 43.299 332.725 44.7894 339.219 46.327C337.788 47.0628 336.562 46.2893 335.141 46.3459C335.466 46.2516 335.605 46.2044 335.744 46.1667C333.069 45.0724 330.17 45.629 327.328 44.6385C327.811 45.28 327.811 45.2422 328.861 45.346C329.362 45.3932 329.855 45.6384 330.319 45.9969C329.604 45.9403 328.879 45.8837 328.164 45.8176L328.117 46.0063C328.851 46.2704 329.585 46.5346 330.356 46.8081C330.124 46.893 329.92 46.9779 329.687 47.0628C330.263 47.6382 330.923 47.7231 331.601 47.5628C332.242 47.4118 332.92 47.4401 333.58 47.393L333.617 47.7326C333.041 47.8363 332.465 48.0533 331.889 48.025C330.765 47.9684 329.65 47.742 328.526 47.6288C327.56 47.5345 326.585 47.4779 325.618 47.4401C325.46 47.4401 325.303 47.5816 324.912 47.7608C325.693 47.9589 326.25 48.1004 326.956 48.2797C326.343 48.8457 325.507 47.9495 325.21 48.9117C324.819 49.1381 324.42 49.3739 323.928 49.6569C324.829 50.4304 326.046 49.8927 327.17 50.6285C325.191 50.421 323.398 50.2229 321.605 50.0342L321.559 50.2323C322.172 50.4587 322.776 50.7794 323.407 50.8832C324.336 51.0341 325.293 51.0058 326.222 51.1379C326.445 51.1662 326.622 51.5435 326.965 51.9114C325.107 51.9114 323.472 51.5341 321.856 52.1378C323.222 52.5811 324.439 53.7037 326.027 53.0434C326.111 53.3169 326.213 53.6093 326.306 53.9301L319.106 53.9301C319.106 54.0338 319.088 54.1376 319.088 54.2508C319.784 54.3074 320.472 54.3357 321.169 54.4394C321.828 54.5338 322.488 54.7036 323.129 54.8451C322.896 54.9205 322.636 55.0054 322.293 55.1186C322.432 55.2884 322.543 55.4205 322.739 55.6563C321.484 55.8355 320.295 56.0053 319.116 56.1751C320.24 57.043 321.549 56.7977 322.766 56.9769C324.011 57.1656 325.275 57.2222 326.538 57.4108C323.705 58.241 320.695 57.5335 317.88 58.4579L317.88 58.6843C319.05 58.9579 320.23 59.2314 321.401 59.4956C321.41 59.4767 321.345 59.571 321.196 59.7691C321.596 59.8351 321.94 59.8917 322.441 59.9766C321.977 60.1276 321.642 60.2408 321.317 60.354L321.345 60.4577C322.311 60.5426 323.277 60.6181 324.253 60.703L324.253 60.9577C322.915 61.0426 321.568 61.1275 320.23 61.2124C320.23 61.2973 320.221 61.3727 320.212 61.4576C320.444 61.5991 320.676 61.7312 321.141 62.0047C320.277 62.0896 319.636 62.1557 318.995 62.2217L318.976 62.4292C320.658 62.7688 322.339 63.1084 324.021 63.448L324.002 63.6932C323.603 63.7404 323.194 63.7876 322.794 63.8442L322.776 64.1555C323.742 64.3158 324.708 64.4668 325.674 64.6271C324.885 65.212 323.844 64.3724 323.203 65.3723C323.157 65.4384 323.268 65.627 323.296 65.7591C322.033 65.6553 320.769 65.5421 319.496 65.4478C318.995 65.4101 318.493 65.3912 317.991 65.4006C317.573 65.4006 317.248 65.5421 317.397 66.0326C318.54 66.259 319.626 66.476 320.713 66.693C318.8 67.1929 316.728 65.9477 314.982 67.6174C320.082 67.9287 325.182 68.24 330.282 68.5513C330.282 68.6645 330.282 68.7682 330.282 68.8814C328.322 68.8531 326.343 68.4286 324.383 69.0795C326.873 69.8719 329.474 69.9757 332.186 70.6737C325.646 71.5793 319.329 71.5038 313.012 71.0039L312.993 70.7586L316.468 70.7586L316.468 70.419C315.557 70.3341 314.629 70.2586 313.709 70.1737C313.709 70.0794 313.709 69.9757 313.709 69.8813C315.065 69.7964 316.431 69.7115 318.01 69.6078C317.666 69.4568 317.518 69.3436 317.36 69.3342C315.994 69.2493 314.619 69.2116 313.254 69.1078C312.529 69.0512 311.795 68.9192 311.08 68.7965C310.151 68.6362 309.723 68.8814 309.714 69.6455C310.197 69.8059 310.931 69.6266 310.801 70.6454C310.801 70.702 311.461 70.8718 311.851 70.9944C311.377 71.5415 310.392 70.7303 310.114 71.8528C310.383 71.8717 310.615 71.8811 310.838 71.9L310.866 72.0604C310.374 72.2867 309.891 72.5131 309.324 72.7678C309.575 72.9754 309.798 73.1546 310.179 73.4753C309.64 73.6828 309.268 73.8809 308.887 73.9564C306.797 74.3715 304.707 74.7959 302.607 75.1261C300.499 75.4562 298.39 75.7298 296.272 75.9373C295.779 75.9845 295.25 75.6543 294.73 75.5034C294.432 75.4185 294.135 75.2959 293.829 75.2676C291.85 75.0695 289.825 75.0789 287.892 74.6356C286.35 74.2771 284.892 74.4469 283.387 74.5035C282.356 74.5412 281.324 74.2771 280.293 74.2016C279.615 74.1545 278.928 74.1639 278.24 74.2016C277.776 74.2299 277.311 74.3526 276.977 74.4092C277.451 74.8903 277.98 75.4468 278.537 75.9656C278.974 76.3713 279.448 76.7391 279.801 77.0316C279.801 77.0316 279.559 77.0693 279.336 77.107C279.243 78.0598 279.68 78.3239 280.414 78.3333C283.6 78.3805 286.787 78.5408 289.964 78.4654C291.246 78.4371 292.519 77.9183 293.801 77.6258C294.033 77.5693 294.265 77.4938 294.525 77.5126C293.541 78.3239 292.398 78.588 291.218 78.654C288.719 78.7861 286.22 78.8427 283.73 78.937C281.482 79.0219 279.234 79.1729 276.986 79.2012C273.8 79.2389 270.604 79.2012 267.417 79.2012C265.978 79.2012 264.528 79.2295 263.088 79.2106C261.695 79.1917 260.311 79.088 258.917 79.088C255.972 79.0974 253.018 79.1729 250.073 79.1917C249.33 79.1917 248.578 79.088 247.834 79.0219L247.834 78.7955C248.401 78.8333 248.949 78.8993 249.497 78.8899C252.024 78.8333 254.551 78.7578 257.078 78.6635C260.134 78.5503 263.191 78.4371 266.238 78.2956C267.947 78.2107 269.647 78.0503 271.524 77.9088C270.372 77.6164 269.34 77.3523 268.049 77.0221C268.467 76.8052 268.662 76.6259 268.876 76.6071C269.777 76.5316 270.678 76.4939 271.579 76.4656C271.747 76.4656 271.923 76.5505 272.09 76.7203C271.747 76.7674 271.412 76.8146 271.068 76.8712L271.068 77.0787L274.998 77.0787L275.017 77.4183C274.125 77.4938 273.233 77.5692 272.35 77.6447L272.35 77.7768C274.255 77.9654 276.15 78.1541 278.045 78.3427C278.184 77.324 277.896 76.9655 277.06 76.9561C275.788 76.9372 274.515 76.7863 273.242 76.692L273.242 76.4278C274.682 76.4939 276.122 76.5693 277.636 76.6448C277.534 75.5694 276.865 75.5883 276.354 75.4845C275.732 75.3619 275.091 75.3902 274.468 75.277C274.004 75.1921 273.577 74.8714 273.112 74.8242C272.499 74.7676 271.877 74.8808 271.254 74.9091C270.53 74.928 269.814 74.9091 269.09 74.9469C268.597 74.9752 268.105 75.0789 267.622 75.1638C267.027 75.2676 266.433 75.4185 265.829 75.4657C265.606 75.4845 265.374 75.2865 265.039 75.1449C265.42 74.7959 265.652 74.5884 266.061 74.2016C264.565 74.5035 263.386 73.3715 262.048 74.1451C261.621 74.3903 260.942 74.0979 260.376 74.0979C258.035 74.1167 255.694 74.1167 253.362 74.2016C251.504 74.2677 249.655 74.4375 247.797 74.6073C247.342 74.645 246.766 74.6261 246.59 75.3336C246.571 75.4185 246.32 75.4279 246.172 75.4751C246.042 74.1639 244.75 74.9374 244.388 74.2677C245.243 74.2016 246.134 74.1356 247.036 74.0602L247.036 73.7394C243.821 73.7017 240.598 73.6734 237.383 73.6357L237.355 73.447C237.43 73.5036 237.513 73.5602 237.727 73.7111C237.374 73.8526 237.114 73.9564 236.789 74.0979C236.566 72.7207 235.6 73.4187 234.959 73.2206C234.336 73.0319 233.686 72.9471 233.073 72.6829C232.72 72.7301 232.311 73.2772 232.042 72.4471C231.345 72.7112 230.713 71.334 229.942 72.3528C229.84 72.4943 229.394 72.3528 229.106 72.2962C228.261 72.1452 227.434 71.8906 226.589 71.8434C224.703 71.7396 222.798 71.7019 220.912 71.7019C220.262 71.7019 219.603 71.9943 218.952 72.0038C218.172 72.0038 217.382 71.8717 216.602 71.7774C216.119 71.7208 215.84 71.8151 216.212 72.5037C216.137 72.5131 216.063 72.532 215.98 72.5414C215.794 72.2584 215.608 71.9849 215.301 71.5227C215.041 71.617 214.623 71.8057 214.196 71.9189C214.038 71.9566 213.787 71.9 213.676 71.7774C212.923 70.9284 211.009 70.8624 210.192 71.6359C209.997 71.8245 209.7 71.8906 209.402 71.8906C209.542 71.7491 209.681 71.6076 209.83 71.4566C209.774 71.3529 209.737 71.2208 209.7 71.2208C208.603 71.1925 207.498 71.1642 206.402 71.1453C206.058 71.1453 205.714 71.1642 205.38 71.1831C204.72 71.2302 204.061 71.2397 203.42 71.3434C202.621 71.4755 201.859 71.5132 201.172 70.8624C200.688 71.8057 199.973 71.3434 199.341 71.4C199.323 71.3057 199.304 71.2208 199.286 71.1265C200.168 70.9284 201.088 70.4756 201.933 70.5888C203.029 70.7397 204.089 70.7586 205.185 70.6548C206.374 70.5416 207.582 70.702 208.789 70.6548C209.923 70.6171 211.056 70.5228 212.189 70.3907C213.137 70.2775 214.066 70.0511 215.013 69.919C215.255 69.8907 215.515 70.1266 215.766 70.1266C216.825 70.1266 217.884 70.07 218.952 70.0322C218.952 69.9379 218.962 69.8436 218.971 69.7493L218.655 69.4285C219.082 69.3814 219.5 69.3342 219.918 69.2965L219.937 69.0889C219.788 69.0229 219.603 68.8531 219.5 68.9003C218.748 69.2587 218.116 68.7494 217.429 68.6267C217.234 68.589 217.011 68.7682 216.844 69.0418C217.104 69.1172 217.354 69.1833 217.615 69.2587L217.559 69.5889C217.243 69.5134 216.899 69.4946 216.611 69.3436C216.165 69.1078 215.822 68.9946 215.692 69.8153L215.45 69.7493C215.283 69.3342 215.125 68.9286 214.958 68.5135L215.162 68.3626C214.744 68.306 214.335 68.2494 213.917 68.1928C213.917 68.089 213.936 67.9947 213.945 67.8909C214.465 67.9192 214.986 67.9287 215.506 68.023C215.552 68.023 215.506 68.589 215.506 69.0323C215.692 68.9191 215.915 68.872 215.989 68.7305C216.407 67.8721 217.159 67.9664 217.847 67.8815C219.24 67.7117 220.597 67.0986 222.037 67.3438C222.668 67.4476 223.3 67.5985 223.941 67.6834C224.182 67.7117 224.452 67.6457 224.703 67.5985C225.121 67.5231 225.53 67.4287 225.994 67.3344C225.771 66.3817 226.403 66.4194 226.979 66.4005C227.35 66.3911 227.722 66.4005 228.094 66.4005L228.112 66.193C227.991 66.1458 227.861 66.0704 227.74 66.0704C226.152 66.127 224.563 66.2024 222.966 66.2496C221.581 66.2873 220.188 66.2779 218.804 66.3345C218.358 66.3534 217.903 66.6175 217.457 66.6081C216.425 66.5892 215.404 66.4383 214.372 66.41C213.1 66.3722 211.827 66.4477 210.554 66.3911C209.95 66.3628 209.347 66.0515 208.743 66.0609C207.098 66.0987 205.528 65.6836 203.931 65.3723C203.531 65.2969 203.113 65.3252 202.695 65.3063C202.593 65.3063 202.463 65.3157 202.388 65.2591C201.367 64.429 200.224 64.5705 199.063 64.7026C198.496 64.7592 197.92 64.6271 197.344 64.5894C197.205 64.5894 197.056 64.6177 196.907 64.8441C197.149 64.8441 197.381 64.8158 197.613 64.8441C197.818 64.8724 198.013 64.9667 198.189 65.0705C198.217 65.0893 198.171 65.4101 198.124 65.4195C197.901 65.4855 197.53 65.6176 197.456 65.5044C196.796 64.5988 196.257 65.2874 195.616 65.5327C195.059 65.7402 194.408 65.6647 193.786 65.5421C194.204 65.5044 194.622 65.4667 195.031 65.4289L195.031 65.1837C194.873 65.1082 194.696 65.0233 194.511 64.9384L194.957 64.5422L191.287 64.5422L191.287 63.514L191.622 63.3254C191.101 62.5047 190.367 62.4575 189.587 62.4952C188.881 62.5235 188.156 62.3915 187.46 62.4952C186.744 62.6084 186.066 62.9386 185.369 63.1367C185.119 63.2122 184.84 63.1839 184.58 63.2027C184.552 63.099 184.524 62.9858 184.496 62.882C184.84 62.7405 185.174 62.599 185.527 62.4481C185.128 62.4481 184.71 62.4009 184.32 62.467C184.06 62.5141 183.846 62.7782 183.586 62.8726C183.196 63.0141 182.954 63.6838 182.397 63.2405C182.313 63.1744 182.081 63.3254 181.802 63.5706C182.025 63.6649 182.239 63.7687 182.49 63.8819C181.393 64.9478 180.344 64.1177 179.359 64.1649C179.35 64.2404 179.331 64.3064 179.322 64.3819C179.926 64.5517 180.539 64.7214 181.143 64.8818C181.05 65.0988 180.957 65.3346 180.901 65.4761C179.805 65.1648 178.718 64.8535 177.612 64.5328C177.808 64.363 177.984 64.2404 178.133 64.0894C178.476 63.731 178.82 63.5801 179.331 63.6838C180.037 63.8347 180.771 63.8253 181.486 63.8819C181.626 62.4764 181.626 62.4953 180.52 62.467C179.879 62.4481 179.229 62.3066 178.588 62.316C178.309 62.316 178.049 62.5801 177.77 62.7122C177.659 62.7688 177.501 62.8443 177.408 62.7971C176.544 62.4387 175.745 62.6462 174.909 62.9669C174.556 63.1084 174.092 62.882 173.683 62.8914C172.559 62.9197 171.398 63.1933 170.32 62.9669C169.335 62.7594 168.443 63.0235 167.514 63.0895C167.347 63.099 167.18 63.1744 167.013 63.2216L167.013 63.4574C167.802 63.4951 168.583 63.5706 169.363 63.5612C170.998 63.5517 172.633 63.3725 174.25 63.5046C174.937 63.5612 175.597 63.9291 176.33 63.6366C176.73 63.4763 177.157 63.4008 177.566 63.2782L177.715 63.6461C177.427 63.8347 177.157 64.1177 176.841 64.1932C175.968 64.429 174.974 64.9384 174.203 64.6837C172.735 64.2121 171.314 64.5234 169.883 64.5045C169.521 64.5045 169.159 64.7592 168.787 64.9007L168.852 65.1365L171.453 65.1365L171.453 65.4006L168.035 65.4006C168.146 65.0799 168.211 64.8818 168.369 64.4479C167.747 64.5517 167.254 64.6271 167.003 64.6648C165.712 64.6648 164.644 64.646 163.566 64.6648C162.349 64.6931 161.132 64.7497 159.925 64.8158C157.853 64.9195 155.772 64.9195 153.719 65.2025C152.53 65.3629 151.415 64.7686 150.272 65.061C149.492 65.2686 148.563 64.8158 147.913 65.6742C147.857 65.7496 147.634 65.7496 147.55 65.693C146.752 65.1742 146.752 65.1742 145.85 65.6176C145.683 65.7025 145.497 65.7214 145.321 65.7685C145.878 66.4949 145.878 66.4854 146.668 66.1081C146.844 66.0232 147.077 66.0326 147.281 66.0421C148.173 66.0987 149.065 66.2307 149.957 66.2119C150.412 66.2024 150.848 65.9006 151.304 65.7685C151.601 65.6836 151.917 65.6647 152.26 65.7591C152.093 65.8251 151.926 65.8911 151.749 65.9572L151.749 66.1836L156.497 66.1836C156.348 66.4383 156.255 66.5986 156.06 66.9476C156.692 66.9854 157.23 67.0231 157.76 67.0514C157.76 66.9571 157.76 66.8533 157.76 66.759L156.887 66.8816C156.887 66.7873 156.887 66.6929 156.877 66.5986C158.42 66.0798 159.971 66.0326 161.587 66.7307C161.513 66.8439 161.439 66.9759 161.281 67.2306C161.978 67.4948 162.637 67.74 163.287 67.9853L163.287 68.1456C162.359 67.9853 161.439 67.8249 160.519 67.674C159.767 67.5514 159.014 67.4382 158.262 67.3155L158.169 67.608C158.28 67.74 158.382 67.8815 158.568 68.1079C157.853 68.2683 157.221 68.4852 156.58 68.5135C156.171 68.5324 155.893 68.0607 155.317 68.2117C154.137 68.523 152.883 68.7494 151.684 68.655C150.886 68.589 150.096 68.2777 149.278 68.5513C148.907 68.6739 148.535 68.7682 148.164 68.8814L148.164 69.0984C151.434 69.3625 154.694 69.6361 158.039 69.9096C157.147 70.6831 154.778 70.8246 153.394 70.2492C153.422 70.4945 153.459 70.7303 153.496 71.051C152.093 70.2303 151.304 70.1737 150.421 70.9472C152.279 71.6359 154.165 71.0699 155.902 71.5415L155.883 71.7774C155.159 71.7208 154.444 71.6453 153.719 71.5981C152.539 71.5227 151.359 71.4849 150.18 71.3906C150.059 71.3812 149.975 71.0793 149.826 70.9944C149.604 70.8529 149.343 70.6737 149.102 70.6831C148.052 70.7209 147.012 70.8152 145.953 71.0227L147.495 71.0227C147.495 71.1076 147.495 71.1925 147.495 71.2774L140.815 71.2774C141.001 70.5511 141.345 70.5699 141.8 70.7114C142.162 70.8246 142.553 70.8152 142.998 70.8623C142.618 70.0417 142.246 69.9002 141.586 70.1737C141.41 70.2492 141.178 70.1737 140.973 70.1737C140.109 70.1737 139.245 70.202 138.381 70.1737C137.945 70.1643 137.517 70.0511 137.09 69.9945C137.09 69.9002 137.09 69.7964 137.09 69.7021C138.149 69.6078 139.208 69.5134 140.267 69.4285L140.267 69.221L135.65 69.221L135.65 68.938C136.561 68.8154 137.48 68.6927 138.391 68.5701L138.363 68.2494C137.146 68.3343 135.929 68.4098 134.563 68.5041C134.795 68.8059 134.87 68.9003 135.056 69.1361C133.774 69.3625 132.64 69.5606 131.507 69.7681L131.525 70.0417C132.129 70.202 132.696 70.6454 133.383 70.202C133.774 69.9568 134.117 69.7775 134.591 70.1643C134.87 70.4001 135.344 70.3624 135.734 70.4001C136.691 70.5133 137.638 70.5982 138.595 70.6925C138.595 70.768 138.595 70.8341 138.595 70.9095C137.796 70.8623 136.997 70.7775 136.198 70.7869C134.842 70.8058 133.486 70.9189 132.139 70.9378C131.823 70.9378 131.516 70.6831 131.191 70.6548C129.918 70.5605 128.646 70.5039 127.364 70.4379C124.818 70.3058 122.273 70.136 119.737 70.0605C117.191 69.9851 114.637 70.0039 112.082 69.9662C111.153 69.9568 110.205 69.8153 109.286 69.919C108.654 69.9851 108.041 70.3624 107.288 70.6454C106.489 69.7587 105.3 70.1077 104.139 70.1737C102.996 70.2398 101.844 70.2115 100.702 70.2303C99.1503 70.2586 97.5896 70.2964 96.0289 70.4756C97.0973 70.8152 98.305 70.2303 99.3454 71.2397C98.4722 71.2585 97.7662 71.5604 96.8836 71.4095C95.3508 71.1548 93.7529 71.3906 92.183 71.4661C90.966 71.5227 89.7676 71.9471 88.5321 71.4283C88.1698 71.2774 87.6681 71.551 87.2222 71.6264L87.2222 71.8905C87.4916 72.0037 87.7517 72.1264 88.0118 72.2396L88.0118 72.3811C87.473 72.4188 86.9528 72.4471 86.4232 72.4848L86.4232 72.7301C88.2533 72.8056 90.0742 73.3432 91.9414 72.7773L91.9228 72.7584L91.0682 73.4659L91.0868 73.6734C91.8114 73.6734 92.536 73.6545 93.2606 73.6734C95.2579 73.7394 97.2459 73.8809 99.2433 73.8904C102.077 73.9092 104.919 73.8338 107.753 73.796C108.607 73.0131 109.527 73.3244 110.577 73.796C110.447 73.3338 110.382 73.1168 110.317 72.881C110.4 72.8433 110.475 72.7773 110.54 72.7773C111.645 72.8339 112.76 72.7867 113.838 72.9942C115.017 73.2206 116.123 72.9753 117.266 72.8622C118.139 72.7773 119.049 73.0225 119.932 73.1168L119.932 73.381L117.591 73.6074L117.591 73.796C118.956 73.9564 120.34 74.1073 121.725 74.2677L121.78 74.4563C121.427 74.5412 121.065 74.6922 120.712 74.6922C118.557 74.711 116.402 74.6922 114.237 74.6922C111.552 74.6922 108.868 74.6733 106.192 74.6733C105.876 74.6733 105.495 74.5507 105.477 75.1638C105.477 75.2393 105.022 75.3713 104.78 75.3713C104.26 75.3713 103.73 75.277 103.21 75.2487C101.519 75.1732 99.8285 75.06 98.1285 75.06C97.5339 75.06 96.9394 75.3808 96.3448 75.5506C96.1962 75.5883 95.9918 75.6732 95.8896 75.5977C94.9885 75.0035 93.9852 75.343 93.0469 75.1544C92.2015 74.9846 91.5977 75.5223 90.8638 75.5883C89.7211 75.7015 88.5599 75.843 87.4173 75.8241C83.8128 75.7675 80.2083 75.6355 76.5946 75.5506C75.7028 75.5317 74.8109 75.56 73.9284 75.6355C70.4819 75.909 67.0539 75.7298 63.6167 75.277C60.3559 74.8525 57.0859 74.428 53.7787 74.8431C52.3202 75.0223 50.8338 74.7959 49.3567 74.8337C47.5545 74.8808 45.7523 75.0035 43.9408 75.0978C42.6495 75.1638 41.3582 75.2298 40.0762 75.3336C39.621 75.3713 39.1658 75.5223 38.7106 75.626C38.7106 75.7204 38.7106 75.8241 38.7106 75.9185C40.0297 76.0788 41.3396 76.2392 42.6587 76.3995L42.6402 76.6637C39.175 76.7108 35.7378 76.0316 32.2727 75.8902L32.2262 76.2109C33.9913 76.5788 35.7471 76.9466 37.5122 77.3051L37.5122 77.5315C35.487 77.3806 33.4804 77.2391 31.4738 77.0882L31.4459 77.39C31.7803 77.4277 32.1148 77.456 32.4956 77.4938C32.5235 77.8805 32.2262 78.3522 33.0995 78.2578C34.4465 78.1069 35.84 78.4088 37.2149 78.4842C37.6422 78.5031 38.0789 78.4088 38.5341 78.522C37.9395 78.6069 37.3449 78.6918 36.7504 78.7767L36.769 78.9559C37.0756 78.9748 37.3821 79.0031 37.6887 79.0219L37.7537 79.2766C37.2985 79.4841 36.8433 79.6917 36.3881 79.9086L36.3602 80.1822C37.2242 80.3614 38.0974 80.5406 38.9614 80.7199L38.9335 81.0972C37.2335 80.5878 35.5334 80.352 33.7498 80.9557C33.9913 81.2576 34.1771 81.4934 34.3536 81.7198C33.3689 81.4368 32.4027 82.5121 31.4366 81.8424L31.4366 81.5405L32.9508 81.5405L32.9787 81.2576C32.7186 81.1538 32.4585 80.9651 32.1984 80.9651C30.8606 80.9463 29.4672 80.7765 28.278 81.5217C27.7021 81.8801 27.1819 82.3612 26.5316 82.5216C24.5342 83.031 22.5555 82.597 20.5582 82.4367C19.8243 82.3801 19.0811 82.3046 18.3565 82.3801C17.0838 82.5216 15.8111 82.7951 14.5384 82.9649C14.3433 82.9932 14.1203 82.7763 13.9066 82.6725C14.0832 82.3329 14.1946 81.7952 14.4455 81.6915C15.2537 81.3613 16.1269 81.2387 16.963 80.9651C18.0406 80.6067 19.1089 80.2011 20.1773 79.7954C20.8555 79.5313 21.4779 79.5407 22.1189 79.9747C22.9178 80.5029 23.9118 80.2482 24.1441 79.5219C23.6982 79.3898 23.2429 79.2577 22.7877 79.1257L22.8063 78.9182C24.9058 78.5314 27.0146 78.1446 29.207 77.739C29.0677 77.6258 28.9934 77.5126 28.919 77.5032C26.4479 77.4749 23.9768 77.4277 21.5057 77.456C21.1434 77.456 20.7811 77.7673 20.3259 77.9843C19.0811 77.2579 17.6969 77.7202 16.3684 78.1918C15.1608 78.6163 14.2039 78.588 13.34 77.4277C12.4389 76.2014 11.2312 75.9562 9.86554 76.4184C9.3453 76.5976 8.79724 76.6731 8.25842 76.7769C8.15625 76.7957 7.97973 76.7957 7.96115 76.7391C7.56167 75.8713 6.57696 76.1165 6.13104 75.56C6.01028 74.5224 5.93594 73.5319 5.75946 72.5697C5.69442 72.2113 5.37854 71.9 5.16488 71.5793C5.09057 71.4661 4.90478 71.3623 4.91406 71.2774C4.99768 70.6077 4.6261 70.1454 4.431 69.5889C4.19876 68.938 3.93866 68.9286 3.50201 68.8908C3.30694 68.872 3.11184 68.8154 2.90747 68.7776C2.88888 68.6927 2.8703 68.6078 2.85171 68.5229C4.45886 67.8155 6.07531 67.0986 7.73819 66.3722C7.64529 65.8628 7.56167 65.4195 7.44092 64.7497C10.1257 64.8818 12.8197 65.4289 15.3744 64.2215C15.2165 63.4857 14.7613 63.2216 14.0553 63.58C13.7209 63.7498 13.4329 64.0045 13.0984 64.1555C12.1416 64.5799 11.259 64.0328 10.3486 63.8347C9.5683 63.6649 8.79724 63.4857 8.02618 63.2593C7.7196 63.165 7.44092 62.9386 7.23654 62.6273C5.13702 62.7594 3.04681 62.882 0.947324 63.0141C0.919431 62.8914 0.891538 62.7782 0.863675 62.6556C1.20739 62.5141 1.54184 62.3537 1.89486 62.25C2.39651 62.0991 3.09326 62.5141 3.27905 61.5236C3.31619 61.335 3.85504 61.1652 4.1709 61.1369C4.84906 61.0803 5.54577 61.1369 6.22394 61.0991C6.43762 61.0897 6.63269 60.9388 6.84634 60.8539C6.75345 60.5992 6.71631 60.2596 6.5491 60.0898C5.83377 59.4106 4.97909 59.0899 4.03152 59.071C3.67849 59.071 3.33478 59.0145 2.99106 58.9861C2.99106 58.873 2.99106 58.7503 2.99106 58.6371C4.18017 58.4768 5.36926 58.3258 6.81848 58.1277C5.01623 57.6938 3.44629 57.1467 2.45227 55.4771C2.55444 54.9488 2.92602 54.7319 3.45556 54.713C3.90146 54.6941 4.34738 54.6375 4.7933 54.5998C4.7933 54.5055 4.7933 54.4206 4.7933 54.3262C4.2359 54.2413 3.67849 54.147 3.1304 54.0621L3.1304 53.8734L3.62277 53.6093C3.26047 52.2604 1.92273 52.4491 1.0216 51.6944C1.55115 51.5152 1.93204 51.3926 2.31293 51.2605L2.35006 51.0341C1.79266 50.6945 1.22598 50.3549 0.668607 50.0153L0.73364 49.7984C2.35937 49.6097 4.04083 50.0436 5.64798 49.5342L5.7316 49.2513C4.05011 48.2891 2.37793 47.3269 0.69647 46.3553L0.715055 46.1572C1.83914 45.9686 2.96319 45.7799 4.21734 45.5629C3.13971 44.7517 2.19214 44.0537 1.20743 43.3084C1.70907 43.1952 2.22 43.0726 2.70309 42.9594C2.79599 42.1953 1.61615 42.0444 2.11783 41.0162C3.19543 42.4123 4.47745 42.6953 5.95453 42.3746C6.92996 42.167 7.92398 42.0916 8.90869 41.9595L8.93655 41.6294C8.04474 41.403 7.16223 41.1483 6.26111 40.9691C5.39715 40.7993 5.2392 40.6012 5.36926 39.6767C4.5982 39.0541 4.63537 38.6014 5.48074 38.0637C5.84305 37.8279 6.22394 37.6203 6.57696 37.3845C6.70703 37.2996 6.83707 37.1864 6.91138 37.0543C7.1622 36.5827 7.38519 36.1016 7.6546 35.5451C7.32944 35.5073 6.86493 35.4602 6.18677 35.3847C6.91138 35.0734 7.44092 34.8564 8.12836 34.5546C7.84036 34.1678 7.66385 33.6867 7.34802 33.5453C6.2518 33.0642 5.72229 32.3284 6.06601 31.0078C6.07529 30.9606 6.01956 30.904 6.01025 30.8474C6.01025 30.8002 6.02887 30.7436 6.05673 30.6399C6.26111 30.5927 6.51193 30.5738 6.71631 30.4701C6.89282 30.3852 7.04144 30.1965 7.19937 30.0645C7.04144 29.8758 6.89279 29.5739 6.707 29.5362C6.17749 29.423 5.62939 29.4324 5.00699 29.3758C5.62939 28.1967 7.42233 29.0268 7.5524 27.2911C8.12836 27.2629 8.80652 27.3949 8.95517 26.4233C7.61743 25.98 6.29825 26.046 4.96051 26.329C4.64465 26.395 4.29166 26.2535 3.94791 26.2158L3.94791 25.8951C5.1463 25.5083 6.33542 25.1216 7.5524 24.7254C7.06003 24.1594 6.60483 23.6217 6.10318 23.0368C6.26111 22.8388 6.38187 22.6784 6.50262 22.5275C6.01956 20.7163 4.54248 21.2634 3.14902 21.1408C4.24521 20.2635 5.50864 21.0182 6.19607 20.1126C5.90808 19.5938 5.66653 19.1882 5.43429 18.7731C5.81518 18.5373 6.19607 18.3109 6.72562 17.9807C6.13104 17.8109 5.67584 17.6789 5.17419 17.528L5.79663 17.245C5.22064 16.8959 4.73758 16.6035 4.25449 16.3111L4.3381 16.1507C5.5365 16.3488 6.73489 16.5469 7.94257 16.745C7.97043 16.6507 7.98901 16.5469 8.01688 16.4526C7.48737 16.1319 6.95782 15.8206 6.43759 15.4999L6.47476 15.4055C7.18079 15.6413 7.87753 15.9526 8.60214 16.1036C9.66119 16.3205 10.7388 16.5092 11.8072 16.5375C12.5132 16.5564 13.3586 15.9526 13.916 16.2262C14.6127 16.5564 15.2537 16.7073 15.9504 16.6601C16.2849 16.6412 16.6007 16.4243 16.9258 16.3017L16.8608 15.9055L14.9192 15.9055L14.8914 15.7828C15.8203 15.415 16.7401 15.0565 17.6969 14.6792C16.7215 14.3207 15.7368 13.9623 14.752 13.5944L14.7706 13.3208C14.9936 13.2642 15.2258 13.1982 15.5045 13.1227L15.2351 12.6228C15.3466 12.6039 15.4302 12.5756 15.4952 12.585C16.0433 12.6982 16.4056 12.3775 16.8329 12.0474C17.5576 11.4814 18.3658 11.0569 19.1368 10.5569C19.4248 10.3683 19.7407 10.1891 19.9822 9.94379C20.0751 9.84946 20.0565 9.42498 19.9822 9.37781C19.0997 8.90616 18.4122 7.88739 17.1953 8.13265C17.2417 8.33075 17.2881 8.51941 17.3718 8.84956C17.1209 8.7458 16.9537 8.70807 16.8144 8.61374C16.2849 8.26471 15.7925 7.81193 15.2258 7.5478C14.687 7.29311 14.7149 6.82146 14.7335 6.39697C14.752 5.91589 14.9192 5.44424 15.0307 4.95372C14.5941 4.79336 14.2596 4.68016 13.9345 4.55753C13.9624 4.4632 13.981 4.36887 14.0088 4.27454C14.8542 4.5198 15.7089 4.75562 16.5543 5.00088L16.6286 4.77449C16.4613 4.68016 16.3034 4.5764 16.1362 4.48207L16.0898 4.24624C16.4892 4.16134 16.9073 3.97268 17.2974 4.01041C18.5609 4.14248 19.6106 3.47273 20.7533 3.09541C21.6265 2.80299 22.5834 2.69922 23.5031 2.70866C25.9463 2.72752 28.3895 2.85959 30.8235 2.93505C31.6688 2.96335 32.4678 3.01995 33.3132 3.26521C34.2422 3.53876 35.3012 3.33124 36.2952 3.3218C39.6953 3.29351 43.0954 3.32181 46.4955 3.21804C50.36 3.10485 54.2339 2.91618 58.0985 2.69923C60.2259 2.5766 62.3347 2.33134 64.4527 2.12381C64.9915 2.06721 65.5304 1.81252 66.0599 1.83139C67.1561 1.87855 68.2709 2.24644 69.3485 2.12381C71.8103 1.84082 74.2164 2.71809 76.6782 2.25587L76.6782 2.51057C75.6749 2.58603 74.6716 2.67093 73.6683 2.74639C79.6602 3.61423 85.6615 2.84072 91.6441 3.15201C90.7802 3.74629 90.6966 3.74629 89.7026 3.27464C89.5911 3.21804 89.4517 3.18974 89.3217 3.19918C86.7019 3.3784 84.0915 3.5765 81.481 3.74629C80.4685 3.81232 79.4558 3.81232 78.4433 3.86892C78.211 3.87836 77.9881 4.02928 77.7558 4.11418L77.7558 4.36887C78.3039 4.4915 78.8613 4.56697 79.3815 4.75563C80.004 4.98202 80.4777 4.85939 80.8215 4.21794C81.2953 5.00089 81.8155 5.13295 82.7445 4.7462C83.8035 4.31228 84.8347 4.38774 86.1353 5.03862L84.4631 5.18955L84.4631 5.40651L85.8008 5.56687L85.8008 5.72723L80.6078 5.72723C80.4871 5.5763 80.357 5.26501 80.2269 5.26501C79.2422 5.26501 78.2575 5.32161 77.2356 5.56687C77.3471 5.65177 77.4492 5.73666 77.7187 5.94419C73.8076 6.01965 70.0174 5.53857 66.2828 6.53847C68.5124 6.62337 70.7513 6.70827 72.9808 6.79316C72.9808 6.91579 72.9901 7.04786 72.9994 7.17048C72.7021 7.25538 72.4048 7.34028 72.1076 7.42518L72.1076 7.65157C72.8322 7.65157 73.5661 7.65157 74.3 7.65157C74.365 7.65157 74.4765 7.58554 74.4858 7.51951C74.8574 6.09512 75.8793 7.04786 76.5853 6.82146C76.2044 6.96296 75.8235 7.09502 75.4333 7.23652L75.4705 7.52894C75.9443 7.52894 76.4274 7.52894 76.9012 7.52894C80.3755 7.45348 83.8407 7.36858 87.3151 7.31198C88.8572 7.28368 90.3993 7.37801 91.9414 7.32141C92.666 7.29312 93.3906 7.06672 94.1152 6.92523L94.0688 6.70827C94.2174 6.84976 94.3661 7.12332 94.5054 7.12332C96.3634 7.08559 98.2121 7.01012 100.07 6.93466C100.07 6.8309 100.079 6.73657 100.089 6.6328C99.6241 6.58564 99.1411 6.46301 98.6859 6.51017C97.2924 6.67054 97.1159 6.6328 95.871 5.40651C96.6328 5.30274 97.311 5.22728 97.9891 5.10465C98.1842 5.06692 98.3607 4.88769 98.7044 4.68016C100.284 4.55753 102.067 4.41604 103.851 4.27454L103.916 4.03872C103.73 3.85006 103.535 3.6614 103.349 3.48217L103.424 3.29351C103.684 3.44444 103.925 3.61423 104.195 3.72743C104.446 3.83119 104.734 3.93495 104.994 3.91609C105.765 3.85006 106.489 3.718 107.307 3.98212C108.031 4.21795 108.895 3.91609 109.815 3.85006C108.886 4.27454 108.022 4.7462 107.112 5.04805C106.136 5.36878 105.124 5.55744 104.111 5.75553C103.099 5.95362 102.067 6.10455 100.925 6.29321C102.086 7.14219 108.152 6.6611 109.313 6.26491C108.728 6.00079 108.329 5.82156 107.92 5.64233C108.013 5.17068 108.292 5.08579 109.824 5.09522C109.62 5.31218 109.397 5.53857 109.035 5.91589C109.416 5.96306 109.611 6.04796 109.75 5.98192C110.8 5.44424 111.915 5.65177 113.002 5.5763C113.494 5.548 114.07 5.39708 114.265 6.20832C114.293 6.34038 114.72 6.39698 114.952 6.38754C115.027 6.38754 115.092 6.05739 115.222 5.72723C115.881 5.98192 116.587 6.25548 117.358 6.55734C117.275 6.75543 117.191 6.96296 117.033 7.34028C117.777 7.22709 117.953 6.79317 117.999 6.16115C118.334 6.21775 118.696 6.27435 119.058 6.33095L119.077 6.49131C118.854 6.57621 118.622 6.6611 118.399 6.75543C118.947 6.87806 119.551 7.57611 120.015 6.57621C120.062 6.46301 120.294 6.39698 120.433 6.39698C122.143 6.38755 123.852 6.39698 125.589 6.55734C124.521 6.7177 123.453 6.86863 122.384 7.01956C122.329 7.01956 122.263 7.03842 122.226 7.01013C121.502 6.37811 120.972 6.73657 120.452 7.37801C120.359 7.49121 120.053 7.44405 119.848 7.40631C118.863 7.20822 117.916 7.09502 117.219 8.14209C117.173 8.21755 116.968 8.17039 116.829 8.17982C117.08 7.51951 116.848 7.43461 115.305 7.63271C115.445 7.7459 115.519 7.82137 115.751 8.01003C114.869 8.01003 114.116 8.05719 113.373 8.00059C112.258 7.9157 111.153 7.67987 110.047 7.63271C109.007 7.59497 107.966 7.70817 106.926 7.78363C106.796 7.78363 106.684 7.97229 106.573 8.31188C107.437 8.37792 108.301 8.45338 109.239 8.52884C109.239 8.63261 109.202 8.8024 109.248 8.93446C109.295 9.07596 109.416 9.24575 109.527 9.27405C109.648 9.30235 109.824 9.21745 109.936 9.12312C110.15 8.95333 110.326 8.56658 110.53 8.55714C111.998 8.50998 113.466 8.52884 114.794 8.52884C114.414 8.7741 113.93 9.07596 113.447 9.37782L113.587 9.67967C114.088 9.57591 114.767 10.2268 114.99 9.35895C115.482 9.48158 115.956 9.61364 116.429 9.71741C116.55 9.74571 116.764 9.69854 116.792 9.62308C117.154 8.63261 117.934 9.14199 118.585 9.07596C118.427 9.21746 118.26 9.35895 118.055 9.54761C118.241 9.61364 118.38 9.71741 118.52 9.71741C119.486 9.73627 120.461 9.72684 121.427 9.71741C121.938 9.71741 122.468 9.8872 122.83 9.23632C122.895 9.12313 123.295 9.21746 123.536 9.23632C124.066 9.28349 124.605 9.37782 125.134 9.37782C126.258 9.37782 127.391 9.33065 128.516 9.31179C129.333 9.29292 130.151 9.29292 130.968 9.25519C131.163 9.25519 131.349 9.11369 131.535 9.03823C131.702 8.9722 131.888 8.82127 132.018 8.86843C134.089 9.47215 136.161 8.87787 138.233 8.95333C138.716 8.9722 139.208 8.90617 139.626 9.04766C139.784 9.12313 139.942 9.27405 140.1 9.27405C141.243 9.29292 142.395 9.29292 143.537 9.27405C144.28 9.26462 145.033 9.18916 145.776 9.17029C146.371 9.16086 146.965 9.17029 147.56 9.23632C147.801 9.26462 148.015 9.49101 148.21 9.48158C149.696 9.44385 151.174 9.42498 152.66 9.36839C154.146 9.30235 155.633 9.18916 157.119 9.10426C157.138 9.19859 157.156 9.30235 157.175 9.39668C156.794 9.50988 156.422 9.61364 156.041 9.72684L156.041 10.0098C156.655 10.0381 157.268 10.1042 157.89 10.0947C158.522 10.0853 159.163 10.0664 159.776 9.9155C160.389 9.75514 160.965 9.41555 161.56 9.15143L161.467 9.43442C161.643 9.57591 161.829 9.84004 161.996 9.8306C162.609 9.79287 163.222 9.65138 163.836 9.57591C164.997 9.44385 166.158 9.33065 167.319 9.22689C167.468 9.21746 167.626 9.27406 167.784 9.30235L167.812 9.53818C167.282 9.60421 166.762 9.73627 166.242 9.72684C165.703 9.72684 165.257 9.75514 164.95 10.3211C164.876 10.4532 164.542 10.5758 164.514 10.5381C163.984 9.84947 163.334 10.2834 162.739 10.2834C161.866 10.2834 160.946 10.3589 160.129 10.5004C159.376 10.6324 158.708 10.3494 158.02 10.4721C157.509 10.5664 156.998 10.7173 156.487 10.7739C155.4 10.8871 154.304 10.9531 153.208 11.0286C152.929 11.0475 152.651 11.0286 152.372 11.0286L152.372 11.2927C153.199 11.2927 154.026 11.3022 154.862 11.2927C155.939 11.2739 157.082 10.9814 158.094 11.2644C160.24 11.8776 162.266 10.9154 164.356 10.9814C165.74 11.0286 167.124 10.9343 168.508 10.9531C168.741 10.9531 168.982 11.189 169.214 11.3116L169.159 11.6229C168.313 11.6983 167.477 11.7738 166.576 11.8587C166.65 12.0096 166.734 12.1794 166.864 12.4247C166.362 12.5285 165.954 12.7077 165.777 11.9719C165.74 11.8304 165.294 11.7455 165.034 11.7549C162.646 11.8115 160.268 11.8776 157.881 11.9625C156.478 12.0096 155.075 12.104 153.645 12.0379L154.369 11.8398L154.351 11.6512C153.44 11.7172 152.539 11.7927 151.629 11.8587C151.629 11.9625 151.638 12.0568 151.647 12.1606C151.991 12.1323 152.335 12.1134 152.688 12.0851L152.688 12.2926C150.839 12.4247 148.99 12.5662 147.132 12.6982L147.105 12.8586C147.318 12.9907 147.523 13.1322 147.783 13.302C147.606 13.368 147.448 13.4246 147.29 13.4812L147.29 13.717L150.625 13.717C150.412 13.585 150.245 13.4906 150.003 13.3397C151.108 13.1133 152.112 12.8775 153.134 12.6888C154.165 12.5002 155.196 12.3492 156.153 13.0756C156.032 13.1605 155.939 13.2265 155.846 13.2925L155.883 13.434C156.85 13.3869 157.816 13.3303 158.782 13.2831C160.278 13.2076 161.783 13.1605 163.278 13.0661C163.854 13.0284 164.43 12.8775 165.071 12.9624C164.532 13.1699 163.994 13.3774 163.51 13.5567C164.226 14.0377 165.136 13.8396 165.842 13.1888C166.102 12.9529 166.604 13.0284 167.003 12.9718C167.013 13.0661 167.022 13.1699 167.031 13.2642C166.78 13.3208 166.53 13.3869 166.149 13.4718C166.381 13.7925 166.53 14 166.65 14.1604L163.306 14.1604C163.668 14.4245 163.975 14.6415 164.282 14.849C164.347 14.8961 164.495 14.9244 164.495 14.9056C164.895 13.9151 165.536 14.7452 166.047 14.6886C167.264 14.5566 168.508 14.7169 169.707 14.5377C171.463 14.2736 173.209 14.5943 174.965 14.4151C176.526 14.2547 178.105 14.3962 179.684 14.3962C179.777 14.3962 179.87 14.3207 180.186 14.1887C176.851 13.5378 173.664 14.6886 170.366 13.6699C170.729 13.4812 170.924 13.3869 171.184 13.2548L169.744 13.2548L169.651 12.9435C169.911 12.8303 170.264 12.5473 170.422 12.6416C171.778 13.4057 172.986 12.8397 174.212 12.2643C174.63 12.0662 175.048 11.8964 175.559 11.6795C175.42 12.7454 173.785 11.887 174.24 13.3114C173.692 13.368 173.256 13.4057 172.819 13.4529L172.819 13.6982C178.318 13.5472 183.809 13.3963 189.541 13.2359C189.16 13.0001 188.983 12.8963 188.797 12.7737C188.862 12.7077 188.909 12.6228 188.974 12.6134C189.596 12.519 190.191 12.4907 190.507 11.6606C190.59 11.4437 191.287 11.5097 191.705 11.4531C191.724 11.5474 191.742 11.6323 191.77 11.7266C191.491 11.8304 191.213 11.9436 190.934 12.0474L190.934 12.2172L198.468 12.2172L198.505 12.2643C198.18 12.3209 197.864 12.387 197.539 12.4436C197.623 13.4906 197.725 13.5661 199.611 14.0472C199.239 14.0755 198.858 14.1038 198.487 14.1321L198.487 14.4056L206.355 14.4056C206.355 14.3019 206.355 14.1887 206.355 14.0849L200.41 14.0849C200.531 13.6604 200.521 13.6321 202.184 13.3963C202.872 13.302 203.587 13.3774 204.293 13.302C202.714 12.4624 200.884 13.3491 199.165 12.3398C199.49 12.2266 199.759 12.0474 200.038 12.0474C201.59 12.0096 203.132 11.9719 204.683 11.9908C207.758 12.0379 210.833 12.1606 213.908 12.1794C215.822 12.1889 217.735 12.0474 219.649 12.0568C220.179 12.0568 220.708 12.3398 221.414 12.5473C221.043 12.6322 220.801 12.7454 220.578 12.736C219.723 12.7077 218.878 12.6228 218.023 12.6039C217.605 12.5945 217.131 12.4436 216.899 13.1039C216.844 13.2737 216.398 13.2925 216.128 13.5378C217.382 13.6227 218.636 13.7076 219.9 13.7925C219.909 13.6982 219.918 13.6038 219.928 13.5095C219.538 13.4529 219.147 13.3963 218.748 13.3397C219.342 12.9341 219.872 12.9907 220.402 13.368C220.699 13.5755 221.098 13.6793 221.461 13.6982C222.631 13.7736 223.811 13.8113 224.991 13.8302C226.115 13.8491 227.239 13.8302 228.549 13.8302C228.261 13.7453 228.121 13.7076 227.982 13.6604C227.322 13.4435 226.663 13.1227 225.985 13.019C225.381 12.9246 224.74 13.0756 224.127 13.1227C224.182 12.7265 224.489 12.6039 224.981 12.67C225.752 12.7737 226.533 12.8869 227.304 12.8586C228.409 12.8114 229.515 12.6134 230.62 12.5285C232.19 12.4153 233.797 12.5662 235.312 12.1889C236.454 11.9059 237.383 12.7548 238.442 12.3492C238.442 12.4436 238.442 12.5379 238.442 12.6322C237.225 12.6605 235.999 12.6511 234.782 12.7265C234.197 12.7643 233.612 12.9435 233.026 13.0567C232.971 12.9624 232.906 12.7926 232.85 12.7926C232.023 12.7737 231.187 12.7454 230.36 12.8209C230.212 12.8303 230.1 13.3114 229.97 13.5661L230.147 13.6793L229.357 13.8585L229.385 14C230.091 13.9528 230.788 13.9057 231.587 13.8491C231.373 13.5095 231.261 13.3303 231.215 13.2548C231.837 13.1793 232.441 13.1039 233.054 13.019L232.952 13.0756ZM291.172 5.63291C290.809 5.39708 290.466 5.09523 290.066 4.9443C289.908 4.8877 289.639 5.17069 289.425 5.29332C289.342 5.10466 289.295 4.82167 289.156 4.75564C288.58 4.46321 287.967 4.16136 287.279 4.64244C287.799 5.04806 288.394 5.10466 288.905 5.45368C289.481 5.84044 290.41 5.58574 291.19 5.60461C292.324 6.47245 293.568 5.96307 294.776 5.95363C294.228 5.67064 293.643 5.56688 293.085 5.35935C292.574 5.17069 292.073 4.61414 291.692 5.55745C291.655 5.65178 291.348 5.61404 291.172 5.63291ZM237.095 8.71751L237.058 8.62318C238.062 8.75524 239.065 8.9156 240.068 9.01937C241.164 9.13256 242.261 9.21746 243.357 9.26463C244.481 9.30236 245.596 9.26463 246.72 9.28349C247.825 9.28349 248.931 9.31179 250.027 9.32122C251.086 9.32122 252.145 9.32122 253.195 9.32122L253.213 9.0005C252.544 8.81184 251.876 8.50998 251.188 8.48168C250.473 8.44395 249.748 8.66091 248.968 8.78354C248.986 8.50055 249.005 8.26473 249.024 8.03833C247.073 7.0856 240.533 6.73657 238.74 7.51951C239.938 7.61384 241.136 7.69874 242.316 7.79307C241.935 8.43452 242.902 8.13266 243.069 8.66091C242.66 8.58545 242.326 8.52885 242 8.46282C241.517 8.36849 241.034 8.22699 240.542 8.17983C239.845 8.1138 239.139 8.13266 238.442 8.06663C237.736 7.99117 237.04 7.82137 236.334 7.74591C235.897 7.69874 235.628 7.84967 236.018 8.36849C235.786 8.47225 235.563 8.58545 235.34 8.68921L235.386 8.96277C235.943 8.8873 236.51 8.81184 237.068 8.73638L237.095 8.71751ZM306.639 9.15143C305.283 10.3117 303.629 9.29293 302.236 10.057C302.58 10.1796 302.923 10.1985 303.276 10.2174C306.045 10.4249 308.813 10.6324 311.581 10.8399C311.702 10.8399 311.897 10.8588 311.934 10.9437C312.185 11.4625 312.427 11.4342 312.78 11.038C312.882 10.9248 313.17 11.0097 313.365 11.0192C314.554 11.1135 315.743 11.1512 316.923 11.3305C317.62 11.4342 318.317 11.6889 318.958 12.0096C319.822 12.4436 320.658 12.9246 321.652 12.5851C321.354 12.453 321.039 12.4624 320.732 12.387C320.472 12.3304 320.212 12.2077 319.989 12.0474C319.775 11.8964 319.636 11.5852 319.413 11.4814C318.902 11.2644 318.363 11.1135 317.834 10.9626C316.774 10.6513 315.715 10.3306 314.638 10.0759C313.542 9.81175 312.343 9.84948 311.358 9.34953C309.788 8.53829 308.228 8.41566 306.574 8.60432C306.5 8.60432 306.444 8.67978 306.333 8.74581L306.658 9.13257L306.639 9.15143ZM126.295 67.7966L126.295 67.9947C127.187 68.0324 128.07 68.1173 128.952 68.1173C132.575 68.1173 136.189 68.089 139.812 68.0796C141.493 68.0796 143.212 68.2588 144.661 67.0891C144.661 67.0891 144.615 67.042 144.568 67.042C143.965 66.9948 143.472 67.4004 142.961 67.5514C142.06 67.8249 140.973 67.6928 140.054 67.391C139.747 67.2872 139.366 67.0514 138.995 67.0325C138.158 66.9948 137.322 67.0137 136.477 67.0325C136.338 67.0325 136.208 67.1269 135.966 67.2212C136.208 67.4193 136.365 67.5514 136.681 67.8155C135.437 67.74 134.377 67.674 133.328 67.608L133.328 67.3816C133.876 67.3438 134.424 67.3061 134.972 67.2589C132.343 67.0703 129.723 66.3062 127.066 67.2684C127.419 67.3438 127.782 67.4193 128.135 67.4947L128.135 67.6457C127.512 67.6928 126.899 67.74 126.286 67.7872L126.295 67.7966ZM226.663 7.31199C227.025 7.42518 227.295 7.51008 227.573 7.58554C228.298 7.78364 229.004 7.95343 229.533 8.67978C229.803 9.0571 230.286 9.61365 230.797 9.17973C231.141 8.8873 231.271 8.31189 231.494 7.84024C231.689 8.01947 231.967 8.28359 232.395 8.68921C233.129 8.73637 234.113 8.79297 235.098 8.84957L235.154 8.59488C234.912 8.42509 234.68 8.26472 234.271 7.98173C234.773 7.944 235.089 7.92513 235.693 7.87797C235.163 7.30255 234.801 6.8875 234.373 6.41585C233.983 6.92523 233.519 6.8875 232.971 6.41585C232.757 6.22719 232.367 6.18946 232.07 6.21775C231.224 6.29322 230.379 6.44415 229.543 6.56678C229.496 6.56678 229.468 6.64224 229.403 6.69884C229.487 6.82147 229.571 6.95353 229.663 7.07616C228.753 7.87797 227.759 7.04786 226.663 7.29312L226.663 7.31199ZM121.613 66.7873C121.604 66.6929 121.595 66.5986 121.585 66.5043C121.019 66.476 120.452 66.4288 119.885 66.41C118.548 66.3817 117.182 66.1647 115.891 66.41C115.082 66.5609 114.376 66.41 113.615 66.3722C112.816 66.3251 111.896 66.2402 111.246 66.6175C110.725 66.9193 110.326 67.0986 109.769 67.042C109.388 67.0042 108.988 67.042 108.58 67.042C108.617 67.1552 108.626 67.1929 108.645 67.2023C108.737 67.2495 108.83 67.2967 108.933 67.3155C110.14 67.5608 111.301 67.3721 112.453 66.9005C112.779 66.7684 113.252 67.0608 113.642 67.2212C113.689 67.2401 113.624 67.6174 113.587 68.0513C114.07 67.9004 114.581 67.9004 114.887 67.6268C115.408 67.1646 116.234 66.9382 117.024 67.3533C116.383 67.4287 115.853 67.4948 115.324 67.5514L115.343 67.7872C116.374 67.7872 117.405 67.7872 118.436 67.7872C118.724 67.7872 119.012 67.6645 119.291 67.7023C119.783 67.7589 120.35 68.1739 120.498 67.1929C120.517 67.0797 120.861 67.0231 121.056 66.9476C121.242 66.8816 121.427 66.8439 121.613 66.7967L121.613 66.7873ZM151.136 62.4952L151.136 62.2877C150.718 62.25 150.291 62.2123 149.864 62.1745L149.864 61.901C150.486 61.901 151.118 61.8444 151.74 61.9104C153.143 62.0708 153.134 62.0991 153.412 61.618L144.104 61.618C144.104 61.7217 144.104 61.8255 144.104 61.9387C144.253 61.9293 144.401 61.8915 144.541 61.9104C145.339 61.9859 146.25 61.8349 146.9 62.2123C147.56 62.599 147.996 62.533 148.554 62.2123C148.777 62.0896 149.018 62.0047 149.251 61.901L149.473 62.2311C149.269 62.2783 149.055 62.3255 148.851 62.3726L149.018 62.6273C149.724 62.5801 150.43 62.5424 151.136 62.4952ZM20.2702 81.4839C20.2702 81.5971 20.2609 81.7103 20.2516 81.8235C20.8555 81.9462 21.4593 82.2103 22.0539 82.1631C23.661 82.0311 25.2681 81.7764 26.8753 81.5594C27.1168 81.5217 27.3397 81.3802 27.572 81.2859L27.5349 81.1161C25.1102 81.2387 22.6949 81.3707 20.2702 81.4934L20.2702 81.4839ZM28.6032 79.0785C29.4393 79.4558 30.1175 80.1728 31.1672 80.0218C32.0683 79.8992 33.0159 80.352 34.0563 79.9275C33.3503 79.7766 32.6629 79.8332 32.2355 79.4936C31.065 78.5691 29.8573 78.8144 28.6032 79.0785ZM117.554 15.3961L117.591 15.1225C117.275 14.9999 116.959 14.8961 116.652 14.7452C116.429 14.6415 116.225 14.3679 116.011 14.3679C115.157 14.3679 114.293 14.4528 113.438 14.5094C113.215 14.5283 112.983 14.5566 112.76 14.5754L112.76 14.9433C114.33 15.4621 115.946 15.415 117.563 15.3867L117.554 15.3961ZM141.159 12.3775C141.15 12.2172 141.14 12.0662 141.131 11.9059C138.307 12.0002 135.474 12.104 132.65 12.1983L132.65 12.3681L141.168 12.3681L141.159 12.3775ZM295.306 74.5318L295.343 74.862C297.349 74.8525 299.365 75.3525 301.363 74.7865L301.363 74.5507L297.517 74.5507L297.517 74.4186C297.758 74.3903 298 74.3714 298.241 74.3431L298.204 74.079L295.306 74.5412L295.306 74.5318ZM295.045 74.5035L294.953 74.0036C293.959 74.1073 292.974 74.2205 291.98 74.3054C291.803 74.3243 291.618 74.2394 291.432 74.2299C290.679 74.2299 289.927 74.2299 289.174 74.2299C290.837 74.5507 292.509 74.711 294.182 74.8148C294.46 74.8337 294.758 74.6167 295.045 74.5035ZM320.936 16.1696C319.534 15.8583 318.177 15.7451 316.607 16.2262C317.62 16.4903 318.4 16.6979 319.181 16.896C319.329 16.9337 319.506 16.9337 319.645 16.8771C320.054 16.6884 320.444 16.4526 320.936 16.179L320.936 16.1696ZM28.0551 79.8992L28.083 79.5596C27.3584 79.4747 26.6337 79.3992 25.714 79.2955C25.8348 79.8992 25.7977 80.5595 26.0485 80.7482C26.3922 81.0123 26.9961 81.1727 27.3677 80.5218C27.2283 80.3425 27.0982 80.1633 26.8474 79.8237C27.3769 79.852 27.7114 79.8709 28.0551 79.8898L28.0551 79.8992ZM226.031 8.96277L225.985 9.34009C226.654 9.51932 227.322 9.69855 227.991 9.87777L228.038 9.67968C227.759 9.60421 227.49 9.52875 227.211 9.46272L227.23 9.22689C227.555 9.20803 227.88 9.24576 228.186 9.16086C228.521 9.07596 228.837 8.8873 229.162 8.74581C228.846 8.65148 228.512 8.43452 228.205 8.47225C227.471 8.57601 226.746 8.79297 226.022 8.96277L226.031 8.96277ZM196.787 63.1933C196.852 63.6083 196.88 63.8347 196.917 64.0611C197.186 64.0045 197.521 64.0328 197.697 63.863C197.967 63.6083 197.613 62.7311 197.242 62.7594C196.146 62.8254 195.05 62.9669 193.953 63.0895C193.963 63.2216 193.972 63.3442 193.99 63.4763C194.957 63.382 195.923 63.2876 196.787 63.2027L196.787 63.1933ZM240.653 71.7868C242.586 72.0886 244.518 72.4943 246.441 71.7868L240.653 71.7868ZM155.865 61.7783C155.177 61.2973 154.016 61.3539 153.821 61.9198L154.211 62.533L152.753 62.533C153.914 63.0141 155.28 62.6839 155.865 61.7783ZM181.96 60.9954C181.96 61.118 181.96 61.2407 181.96 61.3633C183.437 61.1841 184.942 61.8632 186.391 60.9954L181.951 60.9954L181.96 60.9954ZM247.073 12.9718C247.063 13.0567 247.054 13.1416 247.045 13.2265C247.677 13.368 248.41 13.3303 248.931 13.6887C249.702 14.217 250.203 14.0566 250.863 13.2265C249.534 12.8586 248.29 13.1982 247.073 12.9718ZM259.196 12.104C257.607 11.8493 255.972 11.0852 254.458 12.4624C255.155 12.8963 255.276 12.8586 255.564 12.5096C255.731 12.3115 256.019 12.1323 256.26 12.1228C257.236 12.0757 258.221 12.104 259.196 12.104ZM10.5066 61.6368L10.488 61.3633C10.3115 61.3444 10.1257 61.3161 9.94919 61.3255C9.13168 61.3444 8.31418 61.3633 7.50595 61.401C7.28299 61.4104 7.06003 61.5142 6.83706 61.5708C7.04144 61.7312 7.24582 62.0519 7.43161 62.033C8.4628 61.9481 9.48468 61.7689 10.5066 61.6274L10.5066 61.6368ZM152.901 67.5419C152.929 67.6363 152.957 67.7306 152.976 67.8249L156.961 67.8249C156.171 67.5042 155.382 67.325 154.592 67.2118C154.183 67.1552 153.765 67.1835 153.357 67.2306C153.199 67.2495 153.05 67.4287 152.901 67.5419ZM98.305 9.67967C97.0044 9.36838 95.9547 10.3777 94.8027 9.89663C94.6727 9.84004 94.4497 10.0664 94.2732 10.1608C95.6202 10.2834 96.9765 10.8305 98.305 9.67024L98.305 9.67967ZM133.801 13.1888L133.801 12.9907L128.274 12.9907L128.274 13.1888L133.801 13.1888ZM137.174 65.9572C138.502 65.9194 139.691 67.0042 141.066 66.4571C139.821 65.8251 138.484 65.9949 137.174 65.9572ZM226.551 6.66111L226.57 7.0573C227.127 7.0573 227.694 7.09503 228.251 7.03843C228.428 7.01956 228.725 6.73657 228.716 6.59508C228.697 6.32152 228.558 5.98193 228.363 5.831C228.168 5.68007 227.852 5.72724 227.583 5.68951L227.536 5.8593C227.703 5.98193 227.861 6.09513 228.084 6.26492C227.508 6.41585 227.025 6.53848 226.542 6.66111L226.551 6.66111ZM190.005 61.3539C188.965 60.7313 188.073 60.6841 186.893 61.0992C187.311 61.3727 187.553 61.6651 187.785 61.6557C188.454 61.6274 189.123 61.4859 190.005 61.3539ZM223.895 10.9154C224.684 11.4437 228.159 11.5852 229.459 11.1984C227.583 11.1041 225.817 11.0097 223.895 10.9154ZM93.8923 14.9905C94.4311 15.1508 95.0164 15.3772 95.6202 15.481C96.2612 15.5942 96.9208 15.5848 97.5804 15.6225L97.5989 15.3301C96.9115 15.2923 96.224 15.2546 95.5366 15.2169L95.5366 14.9716L95.7967 14.7169C94.812 14.5471 94.1772 14.6352 93.8923 14.981L93.8923 14.9905ZM95.9732 8.25528L95.9361 8.49111C96.6514 8.8873 98.6301 8.7458 99.1504 8.06662C97.9798 8.13266 96.9765 8.18925 95.9732 8.25528ZM98.0913 10.3306L99.5498 10.3306C99.4383 10.1513 99.2897 10.0098 99.3176 9.95323C99.7635 8.8873 100.804 9.64194 101.501 9.18916C100.692 8.27415 99.9864 9.46271 99.4755 9.23632C98.9738 9.63251 98.6115 9.92493 98.0913 10.34L98.0913 10.3306ZM208.473 14.2641C208.473 14.3679 208.455 14.4811 208.445 14.5849C208.836 14.5849 209.217 14.5849 209.607 14.5849C210.471 14.5943 211.335 14.632 212.208 14.6132C212.347 14.6132 212.487 14.3679 212.617 14.2358C212.44 14.1792 212.264 14.0566 212.096 14.0755C211.725 14.1038 211.353 14.2453 210.982 14.2641C210.146 14.2924 209.309 14.2641 208.473 14.2641ZM216.509 14.3396L216.556 14.1415C215.496 14.066 214.437 13.9906 213.369 13.9151L213.267 14.1226C213.397 14.2736 213.527 14.5566 213.657 14.5566C214.605 14.5188 215.552 14.4151 216.509 14.3396ZM222.789 69.8625L222.77 69.6455C221.693 69.9096 220.504 69.0135 219.51 70.2115C220.606 70.0983 221.693 69.9756 222.789 69.8625ZM121.771 67.1457L124.205 67.1457C123.332 66.4194 122.338 66.4854 121.771 67.1457ZM144.067 67.74L144.085 67.957L146.882 67.957L146.882 67.74L144.067 67.74ZM286.703 4.90657C285.012 4.13306 284.105 3.99785 283.981 4.50094C284.892 4.63301 285.793 4.76507 286.703 4.90657ZM239.817 71.9755L239.817 71.9283L236.12 71.9283L236.139 72.2679C237.365 72.1735 238.591 72.0792 239.817 71.9755ZM261.983 12.5096C261.072 11.8021 259.503 12.0474 259.382 12.7266C260.246 12.6511 261.11 12.5851 261.983 12.5096ZM82.2428 15.4433L82.2428 15.1886C81.2116 15.3206 80.1433 14.9999 79.1586 15.4999C79.1586 15.5753 79.1772 15.6602 79.1772 15.7357C80.1991 15.6414 81.2209 15.547 82.2428 15.4527L82.2428 15.4433ZM322.562 20.1692C322.608 20.0277 322.655 19.8862 322.701 19.7447C321.652 19.9523 321.094 18.4901 319.952 19.0373C320.825 19.4146 321.698 19.7919 322.562 20.1787L322.562 20.1692ZM158.68 61.9576C159.525 61.8444 160.222 61.75 160.937 61.6557C160.343 60.9671 159.181 61.052 158.68 61.9576ZM139.71 63.1273C140.462 63.3065 141.206 63.4763 142.042 63.6744C141.726 62.9386 140.667 62.6745 139.71 63.1273ZM140.704 61.6274C141.438 62.3255 142.2 62.2594 142.71 61.6274L140.704 61.6274ZM199.081 63.5612C200.27 64.3536 200.484 64.2592 200.679 63.0235C200.187 63.1933 199.713 63.3537 199.081 63.5612ZM325.526 45.629L325.498 45.7988C326.083 45.9025 326.668 45.9969 327.402 46.1289C327.244 45.7233 327.161 45.5064 327.105 45.346C326.538 45.4498 326.027 45.5347 325.526 45.6196L325.526 45.629ZM161.578 61.5048C162.414 61.8821 163.25 62.2123 164.254 61.5048L161.578 61.5048ZM251.68 12.0474C252.637 12.0945 253.39 12.1323 254.142 12.17C253.399 11.4531 252.637 11.6418 251.68 12.0474ZM103.637 15.3395L103.637 15.6414C104.343 15.547 105.049 15.4527 105.746 15.3584L105.709 15.0282C105.022 15.132 104.325 15.2357 103.637 15.3301L103.637 15.3395ZM108.607 15.0848C108.617 14.9716 108.635 14.8584 108.645 14.7546C107.929 14.7924 107.214 14.8301 106.499 14.8773L106.517 15.2546C107.214 15.198 107.911 15.1414 108.617 15.0942L108.607 15.0848ZM134.099 65.3912C134.554 66.0421 135.604 66.1081 136.263 65.561C135.483 65.495 134.879 65.4572 134.099 65.3912ZM311.405 65.0233C312.009 64.9761 312.51 64.929 313.198 64.8724C312.269 64.1366 312.102 64.1555 311.405 65.0233ZM235.776 6.81204L235.758 7.10446C236.51 7.15163 237.272 7.19879 238.024 7.24596L238.043 6.98183C237.29 6.92523 236.529 6.86863 235.776 6.81204ZM99.9493 15.6697L99.9679 15.3678L98.2678 15.3678L98.2678 15.6697L99.9493 15.6697ZM279.94 3.00109L279.922 3.34068C280.47 3.32181 280.99 3.86893 281.547 3.42558C281.547 3.31238 281.557 3.19919 281.566 3.08599L279.949 3.00109L279.94 3.00109ZM295.287 5.89703C295.696 6.65168 296.16 6.53848 296.634 6.34982L296.662 6.0008C296.207 5.96307 295.742 5.93477 295.287 5.89703ZM17.8641 4.99145C18.3936 5.01975 18.9325 5.05748 19.462 5.08578L19.462 4.78392C18.9696 4.29341 18.4215 4.50093 17.8641 4.99145ZM110.846 6.35925L110.846 6.54791C111.747 6.50074 112.667 6.45358 113.587 6.39698L113.568 6.14229L110.846 6.34981L110.846 6.35925ZM151.675 10.5852C151.266 10.8022 150.858 11.0286 150.449 11.2456C150.978 11.3022 151.619 11.6889 151.675 10.5852ZM280.46 3.76517L280.414 4.18022C280.943 4.26512 281.473 4.35002 282.003 4.42548L282.03 4.18022C281.51 4.03873 280.981 3.89723 280.46 3.75573L280.46 3.76517ZM124.27 13.1322C124.261 13.019 124.242 12.9058 124.233 12.7926C123.471 12.9058 122.7 13.0284 121.938 13.1416L121.957 13.3491C122.728 13.2737 123.499 13.1982 124.27 13.1227L124.27 13.1322ZM132.315 68.9946L132.315 68.5041C131.869 68.5418 131.433 68.589 130.996 68.6267L131.015 68.9003C131.451 68.9286 131.878 68.9663 132.315 68.9946ZM104.947 8.09492L104.929 7.75533L103.052 7.87796C103.052 7.98173 103.061 8.08549 103.071 8.18925L104.947 8.09492ZM117.489 14.3302C117.516 14.4528 117.544 14.566 117.581 14.6886C118.139 14.5094 118.705 14.3302 119.263 14.1509L119.179 13.8208C118.613 13.9906 118.055 14.1604 117.489 14.3302ZM65.5211 6.6328L65.5211 6.51961L63.2172 6.51961L63.2172 6.7743C63.9976 6.72713 64.7593 6.67997 65.5211 6.6328ZM149.195 69.6926C149.195 69.8058 149.213 69.9285 149.213 70.0417C149.761 70.0134 150.3 69.9851 150.848 69.9568L150.848 69.6926L149.185 69.6926L149.195 69.6926ZM100.739 9.73627L100.72 10.0476C101.315 10.1136 101.909 10.1702 102.495 10.2362L102.523 9.8306C101.928 9.8023 101.333 9.76457 100.739 9.73627ZM317.053 65.212C316.552 65.4855 316.208 65.6647 315.743 65.91C316.635 66.2968 316.709 66.259 317.053 65.212Z" fill="#5FB01C"/>
</svg>
